<svg width="0" height="0" class="hidden">
  <symbol id="arrowDown" xmlns="http://www.w3.org/2000/svg" viewBox="0 0 24 24">
    <path d="M12,18.42c-.51,0-1.02-.2-1.41-.59L1.74,8.99c-.78-.78-.78-2.05,0-2.83,.78-.78,2.05-.78,2.83,0l7.43,7.43,7.43-7.43c.78-.78,2.05-.78,2.83,0,.78,.78,.78,2.05,0,2.83l-8.85,8.85c-.39,.39-.9,.59-1.41,.59Z"></path>
  </symbol>
  <symbol id="arrowLeft" xmlns="http://www.w3.org/2000/svg" viewBox="0 0 24 24">
    <path d="M16.19,22.85c-.52,0-1.05-.2-1.44-.61L6.06,13.23c-.77-.79-.75-2.06,.05-2.83L15.11,1.72c.8-.77,2.06-.75,2.83,.05s.75,2.06-.05,2.83l-7.56,7.3,7.3,7.56c.77,.79,.75,2.06-.05,2.83-.39,.38-.89,.56-1.39,.56Z"></path>
  </symbol>
  <symbol id="arrowRight" xmlns="http://www.w3.org/2000/svg" viewBox="0 0 24 24">
    <path d="M7.81,22.85c-.5,0-1-.19-1.39-.56-.79-.77-.82-2.03-.05-2.83l7.3-7.56L6.11,4.59c-.79-.77-.82-2.03-.05-2.83,.77-.79,2.03-.82,2.83-.05l9,8.69c.79,.77,.82,2.03,.05,2.83l-8.69,9c-.39,.41-.92,.61-1.44,.61Z"></path>
  </symbol>
  <symbol id="arrowUp" xmlns="http://www.w3.org/2000/svg" viewBox="0 0 24 24">
    <path d="M3.15,18.4c-.51,0-1.02-.19-1.41-.58-.79-.78-.79-2.04-.02-2.83L10.52,6.09c.78-.79,2.04-.79,2.83-.02l8.9,8.79c.79,.78,.79,2.04,.02,2.83s-2.04,.79-2.83,.02l-7.48-7.38-7.38,7.48c-.39,.4-.91,.59-1.42,.59Z"></path>
  </symbol>
  <symbol id="bullseye" xmlns="http://www.w3.org/2000/svg" viewBox="0 0 24 24">
    <g id="CIRCLE">
      <path d="M12.08,19c-3.86,0-7-3.14-7-7s3.14-7,7-7,7,3.14,7,7-3.14,7-7,7Zm0-12.27c-2.91,0-5.27,2.36-5.27,5.27s2.36,5.27,5.27,5.27,5.27-2.36,5.27-5.27-2.36-5.27-5.27-5.27Z"></path>
    </g>
    <g id="CIRCLE-2">
      <path d="M9.08,12c0-1.66,1.34-3,3-3s3,1.34,3,3-1.34,3-3,3-3-1.34-3-3h0Z"></path>
    </g>
    <g id="CIRCLE-3">
      <path d="M12.08,23c-6.07,0-11-4.93-11-11S6.02,1,12.08,1s11,4.93,11,11-4.93,11-11,11Zm0-20.14C7.04,2.86,2.94,6.96,2.94,12s4.1,9.14,9.14,9.14,9.14-4.1,9.14-9.14S17.12,2.86,12.08,2.86Z"></path>
    </g>
  </symbol>
  <symbol id="cloudAhead" xmlns="http://www.w3.org/2000/svg" viewBox="0 0 30 24">
    <path d="M9.51,10.98c-.33-1.79-1.78-3.13-3.53-3.13-1.39,0-2.59,.85-3.19,2.09-1.44,.17-2.57,1.49-2.57,3.09,0,1.71,1.29,3.11,2.88,3.11h6.24c1.32,0,2.4-1.16,2.4-2.59s-.98-2.48-2.23-2.57Z"></path>
    <g>
      <path d="M27.12,7.95h-6.5c-.54,0-.99,.4-.99,.88v5.81c0,.49,.44,.88,.99,.88h6.5c.54,0,.99-.4,.99-.88v-5.81c0-.49-.44-.88-.99-.88Zm-.3,5.98h-5.9c-.17,0-.31-.12-.31-.28v-4.52c0-.15,.14-.28,.31-.28h5.9c.17,0,.31,.12,.31,.28v4.52c0,.15-.14,.28-.31,.28Z"></path>
      <path d="M28.81,17.05h-9.88c-.55,0-1-.45-1-1s.45-1,1-1h9.88c.55,0,1,.45,1,1s-.45,1-1,1Z"></path>
    </g>
    <path d="M13.06,16.93c-.25,0-.5-.09-.69-.28-.4-.38-.41-1.02-.03-1.41l3.17-3.28-3.28-3.17c-.4-.38-.41-1.02-.03-1.41,.38-.4,1.02-.41,1.41-.02l4,3.86c.4,.38,.41,1.02,.03,1.41l-3.86,4c-.2,.2-.46,.31-.72,.31Z"></path>
  </symbol>
  <symbol id="cloudDone" xmlns="http://www.w3.org/2000/svg" viewBox="0 0 24 24">
    <path d="M19.35,10.04c-.68-3.45-3.71-6.04-7.35-6.04-2.89,0-5.4,1.64-6.65,4.04-3.01,.32-5.35,2.87-5.35,5.96,0,3.31,2.69,6,6,6h13c2.76,0,5-2.24,5-5s-2.05-4.78-4.65-4.96Zm-10.18,7.53l-3.5-3.5c-.24-.24-.24-.64,0-.89l.88-.88c.24-.24,.64-.24,.89,0l1.73,1.72c.24,.24,.64,.24,.89,0l5.6-5.59c.24-.24,.64-.24,.89,0l.88,.88c.24,.24,.24,.64,0,.89l-7.37,7.37c-.24,.24-.64,.24-.89,0Z"></path>
  </symbol>
  <symbol id="cloudSync" xmlns="http://www.w3.org/2000/svg" viewBox="0 0 24 24">
    <path d="M19.35,10.04c-.68-3.45-3.71-6.04-7.35-6.04-2.89,0-5.4,1.64-6.65,4.04-3.01,.32-5.35,2.87-5.35,5.96,0,3.31,2.69,6,6,6h13c2.76,0,5-2.24,5-5s-2.05-4.78-4.65-4.96Zm-12.72,1.73v-2.8c0-.33,.39-.49,.62-.26l.96,.97c.97-.98,2.3-1.6,3.79-1.6,2.32,0,4.29,1.48,5.04,3.56,.09,.24-.09,.5-.34,.5h-.66c-.15,0-.28-.09-.33-.23-.61-1.45-2.04-2.47-3.7-2.47-.97,0-1.85,.35-2.54,.91-.17,.14-.19,.4-.03,.55l.61,.61c.23,.23,.07,.63-.26,.63h-2.78c-.2,0-.36-.16-.36-.37Zm10.74,6.26c0,.33-.39,.49-.62,.26l-.71-.72c-.14-.14-.36-.14-.5,0-.94,.84-2.17,1.35-3.53,1.35-2.32,0-4.29-1.48-5.04-3.56-.09-.24,.09-.5,.34-.5h.66c.15,0,.28,.09,.33,.23,.61,1.45,2.04,2.47,3.7,2.47,.97,0,1.85-.35,2.54-.91,.17-.14,.19-.4,.03-.55l-.61-.61c-.23-.23-.07-.63,.26-.63h2.78c.2,0,.36,.16,.36,.37v2.8Z"></path>
  </symbol>
  <symbol id="cloudWarning" xmlns="http://www.w3.org/2000/svg" viewBox="0 0 24 24">
    <path d="M19.35,10.04c-.68-3.45-3.71-6.04-7.35-6.04-2.89,0-5.4,1.64-6.65,4.04-3.01,.32-5.35,2.87-5.35,5.96,0,3.31,2.69,6,6,6h13c2.76,0,5-2.24,5-5s-2.05-4.78-4.65-4.96Zm-6.88,8.96h-.95c-.57,0-1.03-.46-1.03-1.03v-.95c0-.57,.46-1.03,1.03-1.03h.95c.57,0,1.03,.46,1.03,1.03v.95c0,.57-.46,1.03-1.03,1.03Zm0-4.25h-.91c-.54,0-.99-.36-.99-.8l-.1-7.87c0-.45,.44-.82,.99-.82h.91c.54,0,.99,.36,.99,.8l.1,7.87c0,.45-.44,.82-.99,.82Z"></path>
  </symbol>
  <symbol id="cloud" xmlns="http://www.w3.org/2000/svg" viewBox="0 0 24 24">
    <path d="M19.35,10.04c-.68-3.45-3.71-6.04-7.35-6.04-2.89,0-5.4,1.64-6.65,4.04-3.01,.32-5.35,2.87-5.35,5.96,0,3.31,2.69,6,6,6h13c2.76,0,5-2.24,5-5s-2.05-4.78-4.65-4.96Z"></path>
  </symbol>
  <symbol id="completeSquare" xmlns="http://www.w3.org/2000/svg" viewBox="0 0 24 24">
    <path d="M5.2,12.21l1.02-1.02c.28-.28,.74-.28,1.03,0l2,1.99c.28,.28,.74,.28,1.03,0l6.49-6.47c.28-.28,.74-.28,1.03,0l1.02,1.02c.28,.28,.28,.74,0,1.03l-8.53,8.53c-.28,.28-.74,.28-1.03,0l-4.05-4.05c-.28-.28-.28-.74,0-1.03Z"></path>
    <path d="M21.4,23.5H2.6c-1.16,0-2.1-.94-2.1-2.1V2.6C.5,1.44,1.44,.5,2.6,.5H21.4c1.16,0,2.1,.94,2.1,2.1V21.4c0,1.16-.94,2.1-2.1,2.1Zm-16.55-3h14.3c.75,0,1.35-.61,1.35-1.35V4.85c0-.75-.61-1.35-1.35-1.35H4.85c-.75,0-1.35,.61-1.35,1.35v14.3c0,.75,.61,1.35,1.35,1.35Z"></path>
  </symbol>
  <symbol id="complete" xmlns="http://www.w3.org/2000/svg" viewBox="0 0 24 24">
    <path d="M12,23.75C5.52,23.75,.25,18.48,.25,12S5.52,.25,12,.25s11.75,5.27,11.75,11.75-5.27,11.75-11.75,11.75Zm0-21C6.9,2.75,2.75,6.9,2.75,12s4.15,9.25,9.25,9.25,9.25-4.15,9.25-9.25S17.1,2.75,12,2.75Z"></path>
    <path d="M5.2,12.21l1.02-1.02c.28-.28,.74-.28,1.03,0l2,1.99c.28,.28,.74,.28,1.03,0l6.49-6.47c.28-.28,.74-.28,1.03,0l1.02,1.02c.28,.28,.28,.74,0,1.03l-8.53,8.53c-.28,.28-.74,.28-1.03,0l-4.05-4.05c-.28-.28-.28-.74,0-1.03Z"></path>
  </symbol>
  <symbol id="incomplete" xmlns="http://www.w3.org/2000/svg" viewBox="0 0 24 24">
    <path d="M12,23.75C5.52,23.75,.25,18.48,.25,12S5.52,.25,12,.25s11.75,5.27,11.75,11.75-5.27,11.75-11.75,11.75Zm0-21C6.9,2.75,2.75,6.9,2.75,12s4.15,9.25,9.25,9.25,9.25-4.15,9.25-9.25S17.1,2.75,12,2.75Z"></path>
    <path d="M17.65,13.5H6.35c-.83,0-1.5-.67-1.5-1.5s.67-1.5,1.5-1.5h11.3c.83,0,1.5,.67,1.5,1.5s-.67,1.5-1.5,1.5Z"></path>
  </symbol>
    <symbol id="cross" xmlns="http://www.w3.org/2000/svg" viewBox="0 0 22.85 22.85">
    <path d="M14.31,11.42L22.48,3.26c.49-.49,.49-1.3,0-1.79l-1.1-1.1c-.49-.49-1.3-.49-1.79,0L11.42,8.54,3.26,.37C2.76-.12,1.96-.12,1.47,.37L.37,1.47C-.12,1.96-.12,2.76,.37,3.26L8.54,11.42,.37,19.59c-.49,.49-.49,1.3,0,1.79l1.1,1.1c.49,.49,1.3,.49,1.79,0L11.42,14.31l8.17,8.17c.49,.49,1.3,.49,1.79,0l1.1-1.1c.49-.49,.49-1.3,0-1.79L14.31,11.42Z"></path>
  </symbol>
  <symbol id="dateTime" xmlns="http://www.w3.org/2000/svg" viewBox="0 0 24 24">
    <path d="M17.9,5.48c-.82,0-1.49-.66-1.5-1.48l-.02-2c0-.83,.65-1.51,1.48-1.52h.02c.82,0,1.49,.66,1.5,1.48l.02,2c0,.83-.65,1.51-1.48,1.52h-.02Z"></path>
    <path d="M18.42,22.26c-2.34,0-4.25-1.91-4.25-4.25s1.91-4.25,4.25-4.25,4.25,1.91,4.25,4.25-1.91,4.25-4.25,4.25Zm0-7.44c-1.76,0-3.19,1.43-3.19,3.19s1.43,3.19,3.19,3.19,3.19-1.43,3.19-3.19-1.43-3.19-3.19-3.19Z"></path>
    <path d="M18.25,18.71c-.28,0-.5-.24-.5-.53v-2.11c0-.29,.22-.53,.5-.53s.5,.24,.5,.53v2.11c0,.29-.22,.53-.5,.53Z"></path>
    <path d="M20.52,18.72h-2.22c-.31,0-.55-.22-.55-.5s.25-.5,.55-.5h2.22c.31,0,.55,.22,.55,.5s-.25,.5-.55,.5Z"></path>
    <path d="M6.01,5.48c-.82,0-1.49-.66-1.5-1.48l-.02-2c0-.83,.65-1.51,1.48-1.52,.83-.05,1.51,.65,1.52,1.48l.02,2c0,.83-.65,1.51-1.48,1.52h-.02Z"></path>
    <rect x="16.68" y="8.14" width="3.47" height="2.61" rx=".53" ry=".53"></rect>
    <rect x="12.38" y="8.14" width="3.47" height="2.61" rx=".53" ry=".53"></rect>
    <rect x="7.96" y="8.14" width="3.47" height="2.61" rx=".53" ry=".53"></rect>
    <rect x="3.79" y="11.64" width="3.47" height="2.61" rx=".53" ry=".53"></rect>
    <rect x="12.38" y="11.64" width="3.47" height="2.61" rx=".53" ry=".53"></rect>
    <rect x="7.96" y="15.14" width="3.47" height="2.61" rx=".53" ry=".53"></rect>
    <rect x="7.96" y="18.65" width="3.47" height="2.61" rx=".53" ry=".53"></rect>
    <rect x="7.96" y="11.64" width="3.47" height="2.61" rx=".53" ry=".53"></rect>
    <rect x="3.79" y="15.54" width="3.47" height="2.61" rx=".53" ry=".53"></rect>
    <rect x="3.79" y="18.65" width="3.47" height="2.61" rx=".53" ry=".53"></rect>
    <path d="M20.15,12.17c0-.29-.24-.53-.53-.53h-2.42c-.29,0-.53,.24-.53,.53v1.56s.01,.07,.02,.1c.51-.2,1.06-.32,1.64-.32,.63,0,1.24,.13,1.78,.37,.02-.05,.03-.1,.03-.15v-1.56Z"></path>
    <path d="M19.69,22.28c-.32,.15-.66,.25-1.04,.25H5.34c-1.31,0-2.39-1.08-2.39-2.39V8.02c0-1.31,1.08-2.39,2.39-2.39h13.32c1.31,0,2.39,1.08,2.39,2.39v6.41c.56,.43,1.02,.98,1.33,1.62V3.87c0-1.28-1.05-2.33-2.33-2.33H3.95c-1.28,0-2.33,1.05-2.33,2.33V21.29c0,1.28,1.05,2.33,2.33,2.33H20.05c1.28,0,2.33-1.05,2.33-2.33v-1.34c-.53,1.1-1.5,1.94-2.69,2.32Z"></path>
    <path d="M12.38,19.18v1.56c0,.29,.24,.53,.53,.53h2.34c-.71-.68-1.19-1.59-1.34-2.61h-1c-.29,0-.53,.24-.53,.53Z"></path>
    <path d="M12.38,15.67v1.56c0,.29,.24,.53,.53,.53h.96c.06-.99,.43-1.89,1.03-2.61h-1.99c-.29,0-.53,.24-.53,.53Z"></path>
  </symbol>
  <symbol id="device" xmlns="http://www.w3.org/2000/svg" viewBox="0 0 24 24">
    <path d="M12.54,3.81H2.04c-.73,0-1.32,.59-1.32,1.32v7.39c0,.73,.59,1.32,1.32,1.32H12.54c.73,0,1.32-.59,1.32-1.32V5.13c0-.73-.59-1.32-1.32-1.32Zm.08,8.05c0,.44-.36,.8-.8,.8H2.91c-.44,0-.8-.36-.8-.8V5.97c0-.44,.36-.8,.8-.8H11.81c.44,0,.8,.36,.8,.8v5.89Z"></path>
    <rect x="2.99" y="12.98" width="8.74" height="3.28" rx=".76" ry=".76"></rect>
    <circle cx="18.67" cy="7.49" r="2"></circle>
    <rect x="17.42" y="6.36" width="2.5" height="6.85" rx=".98" ry=".98"></rect>
    <path d="M3.17,20.36c-.27,0-.5-.22-.5-.5s.22-.5,.5-.5l12.94-.08h0c.27,0,.5,.22,.5,.5s-.22,.5-.5,.5l-12.94,.08h0Z"></path>
    <path d="M18.67,17.53c-.28,0-.5-.22-.5-.5v-3.81c0-.28,.22-.5,.5-.5s.5,.22,.5,.5v3.81c0,.28-.22,.5-.5,.5Z"></path>
    <path d="M2.99,20.36c-.09,0-.18-.02-.26-.07-1.56-.96-2.33-2.01-2.29-3.12,.06-1.79,2.23-2.94,2.32-2.98,.24-.13,.55-.03,.67,.21,.13,.24,.03,.55-.21,.67-.48,.25-1.75,1.13-1.78,2.13-.03,.91,.97,1.72,1.81,2.23,.24,.14,.31,.45,.16,.69-.09,.15-.26,.24-.43,.24Z"></path>
    <path d="M16.22,20.29c-.08,0-.15,0-.23-.03-.27-.07-.43-.34-.36-.61,.07-.27,.34-.42,.6-.37h0c.15,0,.67-.26,1.24-.89,.51-.56,.74-1.08,.71-1.3-.04-.27,.15-.53,.42-.57,.28-.03,.53,.15,.57,.42,.12,.84-.65,1.88-1.35,2.51-.36,.32-1.01,.82-1.6,.82Z"></path>
    <path d="M20.65,5.33c-.08,0-.15-.02-.22-.05-.22-.11-.48-.2-.77-.26-.62-.13-1.35-.13-1.97,0-.29,.06-.55,.15-.77,.26-.25,.12-.55,.02-.67-.22s-.02-.55,.22-.67c.29-.15,.63-.26,1.01-.34,.75-.16,1.63-.16,2.38,0,.38,.08,.71,.2,1.01,.34,.25,.12,.35,.42,.22,.67-.09,.17-.26,.28-.45,.28Z"></path>
  </symbol>
  <symbol id="dice" xmlns="http://www.w3.org/2000/svg" viewBox="0 0 24 24">
    <path d="M12,23.85c-.17,0-.35-.04-.5-.13L2.1,18.29c-.31-.18-.5-.51-.5-.87V6.57c0-.36,.19-.69,.5-.87L11.5,.28c.31-.18,.69-.18,1,0l9.4,5.43c.31,.18,.5,.51,.5,.87v10.85c0,.36-.19,.69-.5,.87l-9.4,5.43c-.15,.09-.33,.13-.5,.13ZM3.6,16.85l8.4,4.85,8.4-4.85V7.15L12,2.3,3.6,7.15v9.7Z"></path>
    <path d="M12,23.85c-.55,0-1-.45-1-1V12.2c0-.55,.45-1,1-1s1,.45,1,1v10.66c0,.55-.45,1-1,1Z"></path>
    <path d="M12,13.2c-.17,0-.35-.05-.51-.14L2.09,7.43c-.47-.28-.63-.9-.34-1.37,.28-.47,.9-.63,1.37-.34l9.4,5.62c.47,.28,.63,.9,.34,1.37-.19,.31-.52,.49-.86,.49Z"></path>
    <path d="M12,13.2c-.34,0-.67-.17-.86-.49-.28-.47-.13-1.09,.34-1.37l9.4-5.62c.48-.28,1.09-.13,1.37,.34,.28,.47,.13,1.09-.34,1.37l-9.4,5.62c-.16,.1-.34,.14-.51,.14Z"></path>
    <circle cx="7.3" cy="14.71" r="1.25"></circle>
    <circle cx="12" cy="8.81" r="1.25"></circle>
    <circle cx="12" cy="4.28" r="1.25"></circle>
    <circle cx="14.71" cy="18.12" r="1.25"></circle>
    <circle cx="18.9" cy="10.92" r="1.25"></circle>
    <circle cx="16.7" cy="14.44" r="1.25"></circle>
  </symbol>
  <symbol id="diverged" xmlns="http://www.w3.org/2000/svg" viewBox="0 0 30 24">
    <path d="M9.68,10.98c-.33-1.79-1.81-3.13-3.59-3.13-1.41,0-2.64,.85-3.25,2.09-1.47,.17-2.61,1.49-2.61,3.09,0,1.71,1.31,3.11,2.93,3.11h6.35c1.35,0,2.44-1.16,2.44-2.59s-1-2.48-2.27-2.57Z"></path>
    <g>
      <path d="M27.11,7.95h-6.62c-.56,0-1,.4-1,.88v5.81c0,.49,.45,.88,1,.88h6.62c.56,0,1-.4,1-.88v-5.81c0-.49-.45-.88-1-.88Zm-.3,5.98h-6.01c-.18,0-.32-.12-.32-.28v-4.52c0-.15,.14-.28,.32-.28h6.01c.18,0,.32,.12,.32,.28v4.52c0,.15-.14,.28-.32,.28Z"></path>
      <path d="M28.83,17.05h-10.07c-.55,0-1-.45-1-1s.45-1,1-1h10.07c.55,0,1,.45,1,1s-.45,1-1,1Z"></path>
    </g>
    <g>
      <path d="M15,13.33c-.69,0-1.25-.56-1.25-1.25V7.31c0-.69,.56-1.25,1.25-1.25s1.25,.56,1.25,1.25v4.77c0,.69-.56,1.25-1.25,1.25Z"></path>
      <rect x="13.75" y="14.19" width="2.5" height="2.5" rx="1.04" ry="1.04"></rect>
    </g>
  </symbol>
  <symbol id="edit" xmlns="http://www.w3.org/2000/svg" viewBox="0 0 24 24">
    <path d="M22.41,21.31H1.59c-.83,0-1.5-.67-1.5-1.5s.67-1.5,1.5-1.5H22.41c.83,0,1.5,.67,1.5,1.5s-.67,1.5-1.5,1.5Z"></path>
    <g>
      <path d="M8.31,12.81c-.13,.13-.14,.34-.01,.47l1.71,1.81c.12,.13,.33,.14,.46,.01L19.93,6.16c.12-.11,.12-.29,.01-.41l-1.77-1.87c-.11-.12-.29-.12-.41-.01L8.31,12.81Z"></path>
      <path d="M21.6,3.05l-.63-.67c-.42-.45-1.13-.47-1.58-.04l-.72,.68c-.1,.1-.11,.26,0,.36l1.82,1.92c.1,.1,.26,.11,.36,0l.72-.68c.45-.42,.47-1.13,.04-1.58Z"></path>
    </g>
    <path d="M6.09,16.67l1.5-3.11c.06-.13,.23-.15,.32-.05l1.77,1.87c.1,.1,.06,.27-.07,.32l-3.19,1.32c-.22,.09-.43-.13-.33-.34Z"></path>
  </symbol>
  <symbol id="elasticity1" xmlns="http://www.w3.org/2000/svg" viewBox="0 0 24 24">
    <path d="M12.01,10.82c-1.56,0-3.08-.09-4.51-.26-1.39-.17-2.64-.41-3.71-.72-1.1-.32-1.97-.69-2.59-1.11-.23-.16-.29-.47-.13-.69,.16-.23,.47-.29,.69-.13,.52,.36,1.32,.69,2.31,.98,1.02,.29,2.22,.53,3.55,.69,2.78,.33,6,.33,8.78,0,1.34-.16,2.54-.4,3.55-.69,.99-.28,1.78-.62,2.31-.98,.23-.15,.54-.1,.69,.13,.16,.23,.1,.54-.13,.69-.62,.42-1.49,.79-2.59,1.11-1.07,.31-2.32,.55-3.71,.72-1.43,.17-2.95,.26-4.51,.26Z"></path>
    <path d="M22.54,16.23c-.1,0-.2-.03-.28-.09-.52-.36-1.32-.7-2.31-.98-1.03-.3-2.22-.53-3.56-.69-2.77-.34-6.01-.34-8.78,0-1.33,.16-2.53,.39-3.55,.69-.98,.28-1.78,.62-2.31,.98-.23,.15-.54,.1-.69-.13-.16-.23-.1-.54,.13-.69,.62-.42,1.49-.8,2.59-1.11,1.08-.31,2.33-.55,3.71-.72,2.85-.35,6.17-.35,9.02,0,1.38,.17,2.63,.41,3.71,.72,1.1,.32,1.97,.69,2.59,1.11,.23,.16,.29,.47,.13,.69-.1,.14-.25,.22-.41,.22Z"></path>
    <g>
      <path d="M11.51,14.99l-2.51,3.84c-.26,.4,.03,.92,.5,.92h5.02c.47,0,.76-.53,.5-.92l-2.51-3.84c-.24-.36-.76-.36-1,0Z"></path>
      <path d="M12.01,23.79c-.55,0-1-.45-1-1v-3.16c0-.55,.45-1,1-1s1,.45,1,1v3.16c0,.55-.45,1-1,1Z"></path>
    </g>
    <g>
      <path d="M11.51,9.05l-2.51-3.84c-.26-.4,.03-.92,.5-.92h5.02c.47,0,.76,.53,.5,.92l-2.51,3.84c-.24,.36-.76,.36-1,0Z"></path>
      <path d="M12.01,5.41c-.55,0-1-.45-1-1V1.25c0-.55,.45-1,1-1s1,.45,1,1v3.16c0,.55-.45,1-1,1Z"></path>
    </g>
    <path d="M22.45,13.12s-.08,0-.12-.02l-3.74-1.27c-.84-.28-1.88-.28-2.72,0l-2.24,.76c-1,.34-2.24,.34-3.25,0l-2.24-.76c-.84-.28-1.88-.28-2.72,0l-3.74,1.27c-.2,.07-.41-.04-.48-.24s.04-.41,.24-.48l3.74-1.27c.99-.33,2.21-.33,3.2,0l2.24,.76c.85,.29,1.91,.29,2.77,0l2.24-.76c.99-.33,2.21-.33,3.2,0l3.74,1.27c.2,.07,.3,.28,.24,.48-.05,.16-.2,.25-.36,.25Z"></path>
  </symbol>
  <symbol id="elasticity2" xmlns="http://www.w3.org/2000/svg" viewBox="0 0 24 24">
    <path d="M1.31,22.98c-.55,0-1-.45-1-1,0-.55,.45-1,1-1l21.18-.04h0c.55,0,1,.45,1,1,0,.55-.45,1-1,1l-21.18,.04h0Z"></path>
    <path d="M11.79,19.53h-.05c-2.23,0-4.33-.32-6.36-.62-1.3-.19-2.65-.39-4.05-.52-.55-.05-.96-.53-.91-1.08s.54-.96,1.08-.91c1.45,.13,2.83,.33,4.17,.53,2.05,.3,3.99,.59,6.07,.6h.04c2.44,0,5.1-.35,7.68-.69,1.09-.14,2.17-.29,3.21-.4,.54-.06,1.04,.34,1.1,.89,.06,.55-.34,1.04-.89,1.1-1.02,.11-2.08,.25-3.16,.39-2.64,.35-5.37,.71-7.94,.71Z"></path>
    <path d="M11.91,16.35h-.02c-2.07,0-4.07-.74-6-1.45-1.65-.61-3.21-1.18-4.77-1.31-.55-.05-.96-.53-.91-1.08s.55-.96,1.08-.91c1.82,.16,3.58,.8,5.28,1.43,1.85,.68,3.6,1.32,5.31,1.32h.01c1.77,0,3.59-.65,5.52-1.34,1.64-.59,3.33-1.19,5.03-1.38,.54-.06,1.04,.34,1.1,.89,.06,.55-.34,1.04-.89,1.1-1.47,.16-2.98,.7-4.58,1.27-2,.72-4.08,1.46-6.19,1.46Z"></path>
    <g>
      <path d="M11.37,12.9l-2.51-3.84c-.26-.4,.03-.92,.5-.92h5.02c.47,0,.76,.53,.5,.92l-2.51,3.84c-.24,.36-.76,.36-1,0Z"></path>
      <path d="M11.87,9.26c-.55,0-1-.45-1-1V1.29c0-.55,.45-1,1-1s1,.45,1,1v6.97c0,.55-.45,1-1,1Z"></path>
    </g>
  </symbol>
  <symbol id="elasticity3" xmlns="http://www.w3.org/2000/svg" viewBox="0 0 24 24">
    <g>
      <path d="M22.45,12.36c-.17,0-.35-.05-.51-.14l-3.74-2.24c-.59-.36-1.33-.36-1.93,0l-2.24,1.34c-1.24,.74-2.79,.74-4.03,0l-2.24-1.34c-.6-.36-1.33-.36-1.93,0l-3.74,2.24c-.47,.28-1.09,.13-1.37-.34-.28-.47-.13-1.09,.34-1.37l3.74-2.24c1.23-.73,2.75-.73,3.99,0l2.24,1.34c.61,.37,1.37,.37,1.98,0l2.24-1.34c1.23-.73,2.76-.73,3.99,0l3.74,2.24c.47,.28,.63,.9,.34,1.37-.19,.31-.52,.49-.86,.49Z"></path>
      <path d="M22.45,16.29c-.17,0-.35-.05-.51-.14l-3.74-2.24c-.6-.36-1.33-.36-1.93,0l-2.24,1.34c-1.24,.74-2.79,.74-4.03,0l-2.24-1.34c-.6-.36-1.33-.36-1.93,0l-3.74,2.24c-.47,.28-1.09,.13-1.37-.34-.28-.47-.13-1.09,.34-1.37l3.74-2.24c1.23-.73,2.76-.73,3.99,0l2.24,1.34c.61,.37,1.37,.37,1.98,0l2.24-1.34c1.23-.73,2.76-.73,3.99,0l3.74,2.24c.47,.28,.63,.9,.34,1.37-.19,.31-.52,.49-.86,.49Z"></path>
    </g>
    <g>
      <path d="M11.5,8.86l-1.98-3.03c-.26-.4,.03-.92,.5-.92h3.96c.47,0,.76,.53,.5,.92l-1.98,3.03c-.24,.36-.76,.36-1,0Z"></path>
      <path d="M12,5.91c-.55,0-1-.45-1-1V1.15c0-.55,.45-1,1-1s1,.45,1,1v3.76c0,.55-.45,1-1,1Z"></path>
    </g>
    <g>
      <path d="M6.35,14.83l-1.98,3.03c-.26,.4,.03,.92,.5,.92h3.96c.47,0,.76-.53,.5-.92l-1.98-3.03c-.24-.36-.76-.36-1,0Z"></path>
      <path d="M6.85,23.55c-.55,0-1-.45-1-1v-3.76c0-.55,.45-1,1-1s1,.45,1,1v3.76c0,.55-.45,1-1,1Z"></path>
    </g>
    <g>
      <path d="M16.65,14.81l-1.98,3.03c-.26,.4,.03,.92,.5,.92h3.96c.47,0,.76-.53,.5-.92l-1.98-3.03c-.24-.36-.76-.36-1,0Z"></path>
      <path d="M17.15,23.52c-.55,0-1-.45-1-1v-3.76c0-.55,.45-1,1-1s1,.45,1,1v3.76c0,.55-.45,1-1,1Z"></path>
    </g>
  </symbol>
  <symbol id="elasticity4" xmlns="http://www.w3.org/2000/svg" viewBox="0 0 24 24">
    <path d="M22.6,21.52c-.1,0-.21-.02-.31-.05l-1.72-.56c-.34-.11-.91-.38-1.21-.58l-1.26-.83c-.32-.21-.76-.17-1.03,.1l-.97,.97c-.39,.38-.94,.54-1.47,.42-.53-.12-.95-.5-1.13-1.02l-1.17-3.38c-.08-.24-.42-.24-.5,0l-1.17,3.38c-.18,.52-.6,.9-1.13,1.02-.53,.12-1.08-.03-1.46-.41l-.91-.91c-.29-.29-.74-.32-1.07-.08l-.82,.6c-.38,.28-.81,.49-1.27,.62l-2.31,.66c-.53,.15-1.08-.16-1.23-.69-.15-.53,.16-1.08,.69-1.23l2.31-.66c.23-.06,.44-.17,.63-.31l.82-.6c1.13-.83,2.67-.72,3.66,.27l.43,.43,.95-2.75c.32-.93,1.16-1.52,2.14-1.52s1.82,.6,2.14,1.52l.95,2.75,.49-.49c.94-.93,2.43-1.08,3.53-.36l1.26,.82c.14,.09,.57,.3,.74,.35l1.72,.55c.53,.17,.81,.73,.65,1.26-.14,.42-.53,.69-.95,.69Z"></path>
    <g>
      <path d="M11.5,13.63l-2.51-3.84c-.26-.4,.03-.92,.5-.92h5.02c.47,0,.76,.53,.5,.92l-2.51,3.84c-.24,.36-.76,.36-1,0Z"></path>
      <path d="M12,9.99c-.55,0-1-.45-1-1V2.02c0-.55,.45-1,1-1s1,.45,1,1v6.97c0,.55-.45,1-1,1Z"></path>
    </g>
  </symbol>
  <symbol id="elasticity5" xmlns="http://www.w3.org/2000/svg" viewBox="0 0 24 24">
    <path d="M22.45,11.31c-.09,0-.18-.02-.26-.07l-3.74-2.24c-.75-.45-1.69-.45-2.44,0l-2.24,1.34c-1.09,.65-2.43,.65-3.52,0l-2.24-1.34c-.75-.45-1.69-.45-2.44,0l-3.74,2.24c-.24,.14-.54,.06-.69-.17-.14-.24-.06-.54,.17-.69l3.74-2.24c1.07-.64,2.4-.64,3.47,0l2.24,1.34c.77,.46,1.72,.46,2.49,0l2.24-1.34c1.07-.64,2.4-.64,3.47,0l3.74,2.24c.24,.14,.31,.45,.17,.69-.09,.16-.26,.24-.43,.24Z"></path>
    <path d="M22.6,16.56c-.09,0-.18-.02-.26-.07l-3.74-2.24c-.75-.45-1.69-.45-2.44,0l-2.24,1.34c-1.09,.65-2.43,.65-3.52,0l-2.24-1.34c-.75-.45-1.69-.45-2.44,0l-3.74,2.24c-.24,.14-.54,.06-.69-.17-.14-.24-.06-.54,.17-.69l3.74-2.24c1.07-.64,2.4-.64,3.47,0l2.24,1.34c.77,.46,1.72,.46,2.49,0l2.24-1.34c1.07-.64,2.4-.64,3.47,0l3.74,2.24c.24,.14,.31,.45,.17,.69-.09,.16-.26,.24-.43,.24Z"></path>
    <g>
      <path d="M6.2,15.01l-2.54,3.88c-.26,.4,.03,.92,.5,.92h5.08c.47,0,.76-.53,.5-.92l-2.54-3.88c-.24-.36-.76-.36-1,0Z"></path>
      <path d="M6.7,23.87c-.55,0-1-.45-1-1v-3.19c0-.55,.45-1,1-1s1,.45,1,1v3.19c0,.55-.45,1-1,1Z"></path>
    </g>
    <g>
      <path d="M11.49,8.96l-2.54-3.88c-.26-.4,.03-.92,.5-.92h5.08c.47,0,.76,.53,.5,.92l-2.54,3.88c-.24,.36-.76,.36-1,0Z"></path>
      <path d="M11.99,5.28c-.55,0-1-.45-1-1V1.09c0-.55,.45-1,1-1s1,.45,1,1v3.19c0,.55-.45,1-1,1Z"></path>
    </g>
    <path d="M1.55,16.31s-.06,0-.09-.02c-.13-.05-.19-.19-.14-.32l2.64-6.83c.05-.13,.2-.19,.32-.14,.13,.05,.19,.19,.14,.32l-2.64,6.83c-.04,.1-.13,.16-.23,.16Z"></path>
    <g>
      <path d="M16.75,15.01l-2.54,3.88c-.26,.4,.03,.92,.5,.92h5.08c.47,0,.76-.53,.5-.92l-2.54-3.88c-.24-.36-.76-.36-1,0Z"></path>
      <path d="M17.25,23.87c-.55,0-1-.45-1-1v-3.19c0-.55,.45-1,1-1s1,.45,1,1v3.19c0,.55-.45,1-1,1Z"></path>
    </g>
    <path d="M3.91,15.24s-.06,0-.09-.02c-.13-.05-.19-.19-.14-.32l2.64-6.83c.05-.13,.19-.2,.32-.14,.13,.05,.19,.19,.14,.32l-2.64,6.83c-.04,.1-.13,.16-.23,.16Z"></path>
    <path d="M6.63,13.78s-.06,0-.09-.02c-.13-.05-.19-.19-.14-.32l1.93-5c.05-.13,.2-.2,.32-.14,.13,.05,.19,.19,.14,.32l-1.93,5c-.04,.1-.13,.16-.23,.16Z"></path>
    <path d="M9.18,14.14s-.06,0-.09-.02c-.13-.05-.19-.19-.14-.32l1.55-4c.05-.13,.19-.19,.32-.14,.13,.05,.19,.19,.14,.32l-1.55,4c-.04,.1-.13,.16-.23,.16Z"></path>
    <path d="M11.35,15.26s-.06,0-.09-.02c-.13-.05-.19-.19-.14-.32l1.93-5c.05-.13,.19-.2,.32-.14,.13,.05,.19,.19,.14,.32l-1.93,5c-.04,.1-.13,.16-.23,.16Z"></path>
    <path d="M13.52,15.1s-.06,0-.09-.02c-.13-.05-.19-.19-.14-.32l2.32-6c.05-.13,.2-.19,.32-.14,.13,.05,.19,.19,.14,.32l-2.32,6c-.04,.1-.13,.16-.23,.16Z"></path>
    <path d="M16.07,14.12s-.06,0-.09-.02c-.13-.05-.19-.19-.14-.32l1.93-5c.05-.13,.2-.19,.32-.14,.13,.05,.19,.19,.14,.32l-1.93,5c-.04,.1-.13,.16-.23,.16Z"></path>
    <path d="M18.63,13.83s-.06,0-.09-.02c-.13-.05-.19-.19-.14-.32l1.55-4c.05-.13,.19-.19,.32-.14,.13,.05,.19,.19,.14,.32l-1.55,4c-.04,.1-.13,.16-.23,.16Z"></path>
    <path d="M20.99,15.24s-.06,0-.09-.02c-.13-.05-.19-.19-.14-.32l1.55-4c.05-.13,.19-.2,.32-.14,.13,.05,.19,.19,.14,.32l-1.55,4c-.04,.1-.13,.16-.23,.16Z"></path>
  </symbol>
  <symbol id="errorBox" xmlns="http://www.w3.org/2000/svg" viewBox="0 0 23 23">
    <path d="M20.9,23H2.1c-1.16,0-2.1-.94-2.1-2.1V2.1C0,.94,.94,0,2.1,0H20.9c1.16,0,2.1,.94,2.1,2.1V20.9c0,1.16-.94,2.1-2.1,2.1Zm-16.55-3h14.3c.75,0,1.35-.61,1.35-1.35V4.35c0-.75-.61-1.35-1.35-1.35H4.35c-.75,0-1.35,.61-1.35,1.35v14.3c0,.75,.61,1.35,1.35,1.35Z"></path>
    <path d="M16.56,5.21L4.66,16.15c-.3,.28-.3,.74,0,1.02l.68,.62c.3,.28,.8,.28,1.11,0L18.34,6.85c.3-.28,.3-.74,0-1.02l-.68-.62c-.3-.28-.8-.28-1.11,0Z"></path>
    <path d="M6.44,5.21l11.9,10.94c.3,.28,.3,.74,0,1.02l-.68,.62c-.3,.28-.8,.28-1.11,0L4.66,6.85c-.3-.28-.3-.74,0-1.02l.68-.62c.3-.28,.8-.28,1.11,0Z"></path>
  </symbol>
  <symbol id="errorRound" xmlns="http://www.w3.org/2000/svg" viewBox="0 0 24 24">
    <path d="M12,23.75C5.52,23.75,.25,18.48,.25,12S5.52,.25,12,.25s11.75,5.27,11.75,11.75-5.27,11.75-11.75,11.75Zm0-20.5C7.18,3.25,3.25,7.17,3.25,12s3.93,8.75,8.75,8.75,8.75-3.92,8.75-8.75S16.82,3.25,12,3.25Z"></path>
    <path d="M16.67,6.19L5.68,16.29c-.28,.26-.28,.68,0,.94l.63,.58c.28,.26,.74,.26,1.02,0L18.32,7.71c.28-.26,.28-.68,0-.94l-.63-.58c-.28-.26-.74-.26-1.02,0Z"></path>
    <path d="M7.33,6.19l10.98,10.1c.28,.26,.28,.68,0,.94l-.63,.58c-.28,.26-.74,.26-1.02,0L5.68,7.71c-.28-.26-.28-.68,0-.94l.63-.58c.28-.26,.74-.26,1.02,0Z"></path>
  </symbol>
  <symbol id="gear" xmlns="http://www.w3.org/2000/svg" viewBox="0 0 24 24">
    <g>
      <polygon points="13.95 2.86 10.05 2.86 10.66 .99 13.34 .99 13.95 2.86"></polygon>
      <polygon points="13.95 21.19 10.05 21.19 10.66 23.07 13.34 23.07 13.95 21.19"></polygon>
    </g>
    <g>
      <polygon points="21.16 13.97 21.16 10.08 23.04 10.69 23.04 13.37 21.16 13.97"></polygon>
      <polygon points="2.84 13.97 2.84 10.08 .96 10.69 .96 13.37 2.84 13.97"></polygon>
    </g>
    <g>
      <polygon points="19.86 6.92 17.1 4.17 18.86 3.27 20.76 5.17 19.86 6.92"></polygon>
      <polygon points="6.9 19.88 4.14 17.13 3.24 18.89 5.14 20.78 6.9 19.88"></polygon>
    </g>
    <g>
      <polygon points="17.1 19.88 19.86 17.13 20.76 18.89 18.86 20.78 17.1 19.88"></polygon>
      <polygon points="4.14 6.92 6.9 4.17 5.14 3.27 3.24 5.17 4.14 6.92"></polygon>
    </g>
    <path d="M12,2.51C6.76,2.51,2.51,6.76,2.51,12s4.25,9.49,9.49,9.49,9.49-4.25,9.49-9.49S17.24,2.51,12,2.51Zm0,15.49c-3.31,0-6-2.69-6-6s2.69-6,6-6,6,2.69,6,6-2.69,6-6,6Z"></path>
  </symbol>
  <symbol id="grid" xmlns="http://www.w3.org/2000/svg" viewBox="0 0 24 24">
    <path d="M20,2H4c-1.1,0-2,.9-2,2V20c0,1.1,.9,2,2,2H20c1.1,0,2-.9,2-2V4c0-1.1-.9-2-2-2ZM8,20H4v-4h4v4Zm0-6H4v-4h4v4Zm0-6H4V4h4v4Zm6,12h-4v-4h4v4Zm0-6h-4v-4h4v4Zm0-6h-4V4h4v4Zm6,12h-4v-4h4v4Zm0-6h-4v-4h4v4Zm0-6h-4V4h4v4Z"></path>
  </symbol>
  <symbol id="handleActive" xmlns="http://www.w3.org/2000/svg" viewBox="0 0 24 24">
    <path d="M13.98,5.2c-.08,0-.15-.02-.22-.05-.22-.11-.48-.2-.77-.26-.62-.13-1.35-.13-1.97,0-.29,.06-.55,.15-.77,.26-.25,.12-.55,.02-.67-.22-.12-.25-.02-.55,.22-.67,.29-.15,.63-.26,1.01-.34,.75-.16,1.63-.16,2.38,0,.38,.08,.71,.2,1.01,.34,.25,.12,.35,.42,.22,.67-.09,.17-.26,.28-.45,.28Z"></path>
    <path d="M15.29,3.86c-.08,0-.15-.02-.22-.05-.39-.19-.85-.35-1.36-.46-1.08-.23-2.34-.23-3.42,0-.51,.11-.97,.26-1.36,.46-.25,.13-.55,.03-.67-.22s-.02-.55,.22-.67c.46-.23,1-.42,1.6-.54,1.22-.26,2.62-.26,3.83,0,.6,.13,1.14,.31,1.6,.54,.25,.12,.35,.42,.22,.67-.09,.17-.26,.28-.45,.28Z"></path>
    <path d="M7.39,2.52c-.18,0-.36-.1-.45-.28-.12-.25-.02-.55,.22-.67,.64-.32,1.38-.57,2.19-.74,1.67-.36,3.62-.36,5.29,0,.82,.17,1.55,.42,2.19,.74,.25,.12,.35,.42,.22,.67-.12,.25-.42,.35-.67,.22-.56-.28-1.22-.5-1.95-.66-1.54-.33-3.34-.33-4.87,0-.73,.16-1.39,.38-1.95,.66-.07,.04-.15,.05-.22,.05Z"></path>
    <g>
      <g>
        <path d="M12,16.29c.42,0,.77-.34,.77-.77s-.34-.77-.77-.77-.77,.34-.77,.77,.34,.77,.77,.77Zm0-1.2c.24,0,.44,.2,.44,.44s-.2,.44-.44,.44-.44-.2-.44-.44,.2-.44,.44-.44Z"></path>
        <path d="M13.65,19c-1.08-.46-2.22-.46-3.3,0-.35,.15-.54,.65-.43,1.12,.06,.26,.21,.46,.4,.55,.14,.07,.28,.07,.42,.01,.41-.18,.84-.26,1.26-.26s.85,.09,1.26,.26c.14,.06,.28,.05,.42-.01,.19-.09,.33-.29,.4-.55,.12-.47-.07-.97-.43-1.12Zm-2.42,1c-.35,0-.64-.21-.64-.48s.29-.48,.64-.48h.45l-.11-.07c-.08-.05-.09-.15-.02-.21,.07-.06,.2-.07,.28-.02l.53,.33s.07,.07,.07,.11c0,.08-.09,.15-.2,.15h-.99c-.13,0-.24,.08-.24,.18s.11,.18,.24,.18c.11,0,.2,.07,.2,.15s-.09,.15-.2,.15Zm1.54,0h-.45l.11,.07c.08,.05,.09,.15,.02,.21-.07,.06-.2,.07-.28,.02l-.53-.33s-.07-.07-.07-.11c0-.08,.09-.15,.2-.15h.99c.13,0,.24-.08,.24-.18s-.11-.18-.24-.18c-.11,0-.2-.07-.2-.15s.09-.15,.2-.15c.35,0,.64,.21,.64,.48s-.29,.48-.64,.48Z"></path>
        <path d="M16,9.52c0-2.21-1.79-4-4-4s-4,1.79-4,4c0,1.17,.51,2.22,1.31,2.95v9.47c0,.92,.74,1.66,1.66,1.66h2.05c.92,0,1.66-.74,1.66-1.66V12.47c.8-.73,1.31-1.78,1.31-2.95Zm-4,4.4c.88,0,1.6,.72,1.6,1.6s-.72,1.6-1.6,1.6-1.6-.72-1.6-1.6,.72-1.6,1.6-1.6Zm2.24,6.24c-.07,.3-.25,.54-.48,.66-.1,.05-.2,.07-.3,.07-.09,0-.18-.02-.26-.05-.78-.33-1.61-.33-2.39,0-.18,.08-.38,.07-.56-.02-.23-.12-.41-.36-.48-.66-.13-.54,.1-1.13,.52-1.31h0c1.12-.48,2.31-.48,3.43,0,.42,.18,.65,.77,.52,1.31Zm-2.24-7.89c-1.52,0-2.75-1.23-2.75-2.75s1.23-2.75,2.75-2.75,2.75,1.23,2.75,2.75-1.23,2.75-2.75,2.75Z"></path>
        <path d="M12,16.85c.73,0,1.33-.6,1.33-1.33s-.6-1.33-1.33-1.33-1.33,.6-1.33,1.33,.6,1.33,1.33,1.33Zm0-2.35c.56,0,1.02,.46,1.02,1.02s-.46,1.02-1.02,1.02-1.02-.46-1.02-1.02,.46-1.02,1.02-1.02Z"></path>
      </g>
      <circle cx="12" cy="9.52" r="2.2"></circle>
    </g>
  </symbol>
  <symbol id="handle" xmlns="http://www.w3.org/2000/svg" viewBox="0 0 24 24">
    <g>
      <path d="M12,14.16c.53,0,.96-.43,.96-.96s-.43-.96-.96-.96-.96,.43-.96,.96,.43,.96,.96,.96Zm0-1.5c.3,0,.55,.24,.55,.55s-.24,.55-.55,.55-.55-.24-.55-.55,.24-.55,.55-.55Z"></path>
      <path d="M14.06,17.55c-1.35-.58-2.78-.58-4.13,0-.44,.19-.68,.82-.53,1.4,.08,.32,.26,.57,.49,.69,.17,.08,.35,.09,.53,.02,.52-.22,1.05-.33,1.58-.33s1.06,.11,1.58,.33c.17,.07,.36,.07,.53-.02,.24-.12,.42-.37,.49-.69,.15-.59-.09-1.21-.53-1.4Zm-3.03,1.25c-.44,0-.8-.27-.8-.6s.36-.6,.8-.6h.56l-.13-.08c-.1-.07-.12-.18-.03-.26,.09-.08,.24-.09,.35-.02l.66,.41c.06,.04,.09,.09,.09,.14,0,.1-.11,.18-.25,.18h-1.24c-.17,0-.3,.1-.3,.23s.14,.23,.3,.23c.14,0,.25,.08,.25,.18s-.11,.18-.25,.18Zm1.93,0h-.56l.13,.08c.1,.07,.12,.18,.03,.26-.09,.08-.24,.09-.35,.02l-.66-.41c-.06-.04-.09-.09-.09-.14,0-.1,.11-.18,.25-.18h1.24c.17,0,.3-.1,.3-.23s-.14-.23-.3-.23c-.14,0-.25-.08-.25-.18s.11-.18,.25-.18c.44,0,.8,.27,.8,.6s-.36,.6-.8,.6Z"></path>
      <path d="M17,5.7c0-2.76-2.24-5-5-5S7,2.94,7,5.7c0,1.46,.64,2.77,1.64,3.68v11.84c0,1.15,.93,2.07,2.07,2.07h2.56c1.15,0,2.07-.93,2.07-2.07V9.38c1-.91,1.64-2.22,1.64-3.68Zm-5,5.5c1.1,0,2,.9,2,2s-.9,2-2,2-2-.9-2-2,.9-2,2-2Zm2.8,7.8c-.09,.38-.31,.68-.6,.82-.12,.06-.25,.09-.37,.09-.11,0-.22-.02-.32-.07-.98-.42-2.01-.42-2.99,0-.23,.1-.47,.09-.7-.02-.29-.14-.51-.44-.6-.82-.17-.68,.12-1.42,.65-1.64h0c1.4-.6,2.89-.6,4.29,0,.53,.22,.82,.96,.65,1.64Zm-2.8-9.86c-1.9,0-3.44-1.54-3.44-3.44s1.54-3.44,3.44-3.44,3.44,1.54,3.44,3.44-1.54,3.44-3.44,3.44Z"></path>
      <path d="M12,14.86c.92,0,1.66-.75,1.66-1.66s-.75-1.66-1.66-1.66-1.66,.75-1.66,1.66,.75,1.66,1.66,1.66Zm0-2.93c.7,0,1.27,.57,1.27,1.27s-.57,1.27-1.27,1.27-1.27-.57-1.27-1.27,.57-1.27,1.27-1.27Z"></path>
    </g>
    <circle cx="12" cy="5.7" r="2.75"></circle>
  </symbol>
  <symbol id="incompleteSquare" xmlns="http://www.w3.org/2000/svg" viewBox="0 0 24 24">
    <path d="M17.65,13.5H6.35c-.83,0-1.5-.67-1.5-1.5s.67-1.5,1.5-1.5h11.3c.83,0,1.5,.67,1.5,1.5s-.67,1.5-1.5,1.5Z"></path>
    <path d="M21.4,23.5H2.6c-1.16,0-2.1-.94-2.1-2.1V2.6C.5,1.44,1.44,.5,2.6,.5H21.4c1.16,0,2.1,.94,2.1,2.1V21.4c0,1.16-.94,2.1-2.1,2.1Zm-16.55-3h14.3c.75,0,1.35-.61,1.35-1.35V4.85c0-.75-.61-1.35-1.35-1.35H4.85c-.75,0-1.35,.61-1.35,1.35v14.3c0,.75,.61,1.35,1.35,1.35Z"></path>
  </symbol>
  <symbol id="keyboardDown" xmlns="http://www.w3.org/2000/svg" viewBox="0 0 24 24">
    <path d="M22.79,2.6H1.21C.61,2.6,.12,3.09,.12,3.69V12.56c0,.61,.49,1.1,1.1,1.1H22.79c.61,0,1.1-.49,1.1-1.1V3.69c0-.61-.49-1.1-1.1-1.1Zm-8.53,1.99c0-.19,.15-.34,.34-.34h1.19c.19,0,.34,.15,.34,.34v1.19c0,.19-.15,.34-.34,.34h-1.19c-.19,0-.34-.15-.34-.34v-1.19Zm0,3.21c0-.19,.15-.34,.34-.34h1.19c.19,0,.34,.15,.34,.34v1.19c0,.19-.15,.34-.34,.34h-1.19c-.19,0-.34-.15-.34-.34v-1.19Zm-3.19-3.21c0-.19,.15-.34,.34-.34h1.19c.19,0,.34,.15,.34,.34v1.19c0,.19-.15,.34-.34,.34h-1.19c-.19,0-.34-.15-.34-.34v-1.19Zm0,3.21c0-.19,.15-.34,.34-.34h1.19c.19,0,.34,.15,.34,.34v1.19c0,.19-.15,.34-.34,.34h-1.19c-.19,0-.34-.15-.34-.34v-1.19Zm-3.19-3.21c0-.19,.15-.34,.34-.34h1.19c.19,0,.34,.15,.34,.34v1.19c0,.19-.15,.34-.34,.34h-1.19c-.19,0-.34-.15-.34-.34v-1.19Zm0,3.21c0-.19,.15-.34,.34-.34h1.19c.19,0,.34,.15,.34,.34v1.19c0,.19-.15,.34-.34,.34h-1.19c-.19,0-.34-.15-.34-.34v-1.19Zm-3.19-3.21c0-.19,.15-.34,.34-.34h1.19c.19,0,.34,.15,.34,.34v1.19c0,.19-.15,.34-.34,.34h-1.19c-.19,0-.34-.15-.34-.34v-1.19Zm-1.33,4.4c0,.19-.15,.34-.34,.34H1.85c-.19,0-.34-.15-.34-.34v-1.19c0-.19,.15-.34,.34-.34h1.19c.19,0,.34,.15,.34,.34v1.19Zm0-3.21c0,.19-.15,.34-.34,.34H1.85c-.19,0-.34-.15-.34-.34v-1.19c0-.19,.15-.34,.34-.34h1.19c.19,0,.34,.15,.34,.34v1.19Zm1.33,3.21v-1.19c0-.19,.15-.34,.34-.34h1.19c.19,0,.34,.15,.34,.34v1.19c0,.19-.15,.34-.34,.34h-1.19c-.19,0-.34-.15-.34-.34Zm13.17,2.93c0,.19-.15,.34-.34,.34H6.46c-.19,0-.34-.15-.34-.34v-.9c0-.19,.15-.34,.34-.34h11.07c.19,0,.34,.15,.34,.34v.9Zm1.43-2.93c0,.19-.15,.34-.34,.34h-1.19c-.19,0-.34-.15-.34-.34v-1.19c0-.19,.15-.34,.34-.34h1.19c.19,0,.34,.15,.34,.34v1.19Zm0-3.21c0,.19-.15,.34-.34,.34h-1.19c-.19,0-.34-.15-.34-.34v-1.19c0-.19,.15-.34,.34-.34h1.19c.19,0,.34,.15,.34,.34v1.19Zm3.19,3.21c0,.19-.15,.34-.34,.34h-1.19c-.19,0-.34-.15-.34-.34v-1.19c0-.19,.15-.34,.34-.34h1.19c.19,0,.34,.15,.34,.34v1.19Zm0-3.21c0,.19-.15,.34-.34,.34h-1.19c-.19,0-.34-.15-.34-.34v-1.19c0-.19,.15-.34,.34-.34h1.19c.19,0,.34,.15,.34,.34v1.19Z"></path>
    <path d="M12,22.55c-.32,0-.64-.12-.88-.36l-5.51-5.51c-.49-.49-.49-1.27,0-1.76,.49-.49,1.27-.49,1.76,0l4.63,4.63,4.63-4.63c.49-.49,1.27-.49,1.76,0,.49,.49,.49,1.27,0,1.76l-5.51,5.51c-.24,.24-.56,.36-.88,.36Z"></path>
  </symbol>
  <symbol id="keyboard" xmlns="http://www.w3.org/2000/svg" viewBox="0 0 24 24">
    <path d="M22.79,6.47H1.21c-.61,0-1.1,.49-1.1,1.1v8.87c0,.61,.49,1.1,1.1,1.1H22.79c.61,0,1.1-.49,1.1-1.1V7.57c0-.61-.49-1.1-1.1-1.1Zm-8.53,1.99c0-.19,.15-.34,.34-.34h1.19c.19,0,.34,.15,.34,.34v1.19c0,.19-.15,.34-.34,.34h-1.19c-.19,0-.34-.15-.34-.34v-1.19Zm0,3.21c0-.19,.15-.34,.34-.34h1.19c.19,0,.34,.15,.34,.34v1.19c0,.19-.15,.34-.34,.34h-1.19c-.19,0-.34-.15-.34-.34v-1.19Zm-3.19-3.21c0-.19,.15-.34,.34-.34h1.19c.19,0,.34,.15,.34,.34v1.19c0,.19-.15,.34-.34,.34h-1.19c-.19,0-.34-.15-.34-.34v-1.19Zm0,3.21c0-.19,.15-.34,.34-.34h1.19c.19,0,.34,.15,.34,.34v1.19c0,.19-.15,.34-.34,.34h-1.19c-.19,0-.34-.15-.34-.34v-1.19Zm-3.19-3.21c0-.19,.15-.34,.34-.34h1.19c.19,0,.34,.15,.34,.34v1.19c0,.19-.15,.34-.34,.34h-1.19c-.19,0-.34-.15-.34-.34v-1.19Zm0,3.21c0-.19,.15-.34,.34-.34h1.19c.19,0,.34,.15,.34,.34v1.19c0,.19-.15,.34-.34,.34h-1.19c-.19,0-.34-.15-.34-.34v-1.19Zm-3.19-3.21c0-.19,.15-.34,.34-.34h1.19c.19,0,.34,.15,.34,.34v1.19c0,.19-.15,.34-.34,.34h-1.19c-.19,0-.34-.15-.34-.34v-1.19Zm-1.33,4.4c0,.19-.15,.34-.34,.34H1.85c-.19,0-.34-.15-.34-.34v-1.19c0-.19,.15-.34,.34-.34h1.19c.19,0,.34,.15,.34,.34v1.19Zm0-3.21c0,.19-.15,.34-.34,.34H1.85c-.19,0-.34-.15-.34-.34v-1.19c0-.19,.15-.34,.34-.34h1.19c.19,0,.34,.15,.34,.34v1.19Zm1.33,3.21v-1.19c0-.19,.15-.34,.34-.34h1.19c.19,0,.34,.15,.34,.34v1.19c0,.19-.15,.34-.34,.34h-1.19c-.19,0-.34-.15-.34-.34Zm13.17,2.93c0,.19-.15,.34-.34,.34H6.46c-.19,0-.34-.15-.34-.34v-.9c0-.19,.15-.34,.34-.34h11.07c.19,0,.34,.15,.34,.34v.9Zm1.43-2.93c0,.19-.15,.34-.34,.34h-1.19c-.19,0-.34-.15-.34-.34v-1.19c0-.19,.15-.34,.34-.34h1.19c.19,0,.34,.15,.34,.34v1.19Zm0-3.21c0,.19-.15,.34-.34,.34h-1.19c-.19,0-.34-.15-.34-.34v-1.19c0-.19,.15-.34,.34-.34h1.19c.19,0,.34,.15,.34,.34v1.19Zm3.19,3.21c0,.19-.15,.34-.34,.34h-1.19c-.19,0-.34-.15-.34-.34v-1.19c0-.19,.15-.34,.34-.34h1.19c.19,0,.34,.15,.34,.34v1.19Zm0-3.21c0,.19-.15,.34-.34,.34h-1.19c-.19,0-.34-.15-.34-.34v-1.19c0-.19,.15-.34,.34-.34h1.19c.19,0,.34,.15,.34,.34v1.19Z"></path>
  </symbol>
  <symbol id="localAhead" xmlns="http://www.w3.org/2000/svg" viewBox="0 0 30 24">
    <path d="M9.43,10.98c-.33-1.79-1.78-3.13-3.53-3.13-1.39,0-2.59,.85-3.19,2.09-1.44,.17-2.57,1.49-2.57,3.09,0,1.71,1.29,3.11,2.88,3.11h6.24c1.32,0,2.4-1.16,2.4-2.59s-.98-2.48-2.23-2.57Z"></path>
    <g>
      <path d="M27.16,7.95h-6.5c-.54,0-.99,.4-.99,.88v5.81c0,.49,.44,.88,.99,.88h6.5c.54,0,.99-.4,.99-.88v-5.81c0-.49-.44-.88-.99-.88Zm-.3,5.98h-5.9c-.17,0-.31-.12-.31-.28v-4.52c0-.15,.14-.28,.31-.28h5.9c.17,0,.31,.12,.31,.28v4.52c0,.15-.14,.28-.31,.28Z"></path>
      <path d="M28.85,17.05h-9.88c-.55,0-1-.45-1-1s.45-1,1-1h9.88c.55,0,1,.45,1,1s-.45,1-1,1Z"></path>
    </g>
    <path d="M16.53,16.93c-.26,0-.52-.1-.72-.31l-3.86-4c-.38-.4-.37-1.03,.03-1.41l4-3.86c.4-.38,1.03-.37,1.41,.02,.38,.4,.37,1.03-.03,1.41l-3.28,3.17,3.17,3.28c.38,.4,.37,1.03-.03,1.41-.19,.19-.44,.28-.69,.28Z"></path>
  </symbol>
  <symbol id="local" xmlns="http://www.w3.org/2000/svg" viewBox="0 0 24 24">
    <path d="M18.12,3.08H5.88c-1.03,0-1.86,.77-1.86,1.73v11.39c0,.95,.83,1.73,1.86,1.73h12.25c1.03,0,1.86-.77,1.86-1.73V4.81c0-.95-.83-1.73-1.86-1.73Zm-.56,11.71H6.44c-.32,0-.59-.24-.59-.55V5.39c0-.3,.26-.55,.59-.55h11.13c.32,0,.59,.24,.59,.55V14.24c0,.3-.26,.55-.59,.55Z"></path>
    <path d="M21.32,20.92H2.68c-1.04,0-1.89-.88-1.89-1.96s.84-1.96,1.89-1.96H21.32c1.04,0,1.89,.88,1.89,1.96s-.84,1.96-1.89,1.96Z"></path>
  </symbol>
  <symbol id="logout" xmlns="http://www.w3.org/2000/svg" viewBox="0 0 24 24">
    <ellipse cx="7.58" cy="9.35" rx="4.32" ry="4.25"></ellipse>
    <path d="M14.31,22.76c.41,0,.75-.36,.72-.79-.35-4.28-3.55-7.63-7.44-7.63S.5,17.69,.14,21.97c-.04,.43,.31,.79,.72,.79H14.31Z"></path>
    <path d="M23.78,11.56l-4.59-4.06c-.45-.4-1.16-.08-1.16,.52v8.13c0,.6,.71,.92,1.16,.52l4.59-4.06c.31-.28,.31-.77,0-1.04Z"></path>
    <path d="M20.02,13.59h-6.29c-.83,0-1.5-.67-1.5-1.5s.67-1.5,1.5-1.5h6.29c.83,0,1.5,.67,1.5,1.5s-.67,1.5-1.5,1.5Z"></path>
  </symbol>
  <symbol id="menu" xmlns="http://www.w3.org/2000/svg" viewBox="0 0 24 24">
    <path d="M21.35,7.18H2.65c-.83,0-1.5-.67-1.5-1.5s.67-1.5,1.5-1.5H21.35c.83,0,1.5,.67,1.5,1.5s-.67,1.5-1.5,1.5Z"></path>
    <path d="M21.35,13.5H2.65c-.83,0-1.5-.67-1.5-1.5s.67-1.5,1.5-1.5H21.35c.83,0,1.5,.67,1.5,1.5s-.67,1.5-1.5,1.5Z"></path>
    <path d="M21.35,19.82H2.65c-.83,0-1.5-.67-1.5-1.5s.67-1.5,1.5-1.5H21.35c.83,0,1.5,.67,1.5,1.5s-.67,1.5-1.5,1.5Z"></path>
  </symbol>
  <symbol id="modeButton" xmlns="http://www.w3.org/2000/svg" viewBox="0 0 24 24">
    <g id="LWPOLYLINE">
      <path d="M19.28,18c-.44,0-.88-.09-1.3-.27-3.91-1.67-8.05-1.67-11.96,0-.91,.39-1.9,.36-2.79-.09-1.16-.58-2.03-1.78-2.41-3.29-.67-2.72,.49-5.66,2.6-6.56h0c5.61-2.39,11.55-2.39,17.16,0,2.11,.9,3.27,3.84,2.6,6.56-.37,1.51-1.25,2.71-2.41,3.29-.48,.24-.98,.36-1.49,.36Zm-7.28-2.34c2.12,0,4.24,.44,6.3,1.32,.69,.3,1.42,.27,2.1-.07,.94-.47,1.66-1.47,1.98-2.75,.58-2.34-.37-4.86-2.13-5.61-5.4-2.3-11.11-2.3-16.52,0-1.75,.75-2.71,3.26-2.13,5.61,.32,1.28,1.04,2.28,1.98,2.75,.68,.34,1.41,.36,2.1,.07,2.06-.88,4.18-1.32,6.3-1.32Z"></path>
    </g>
    <g>
      <g id="LWPOLYLINE-2">
        <path d="M14.16,13.9l-.54-.34h2.24c1.77,0,3.2-1.07,3.2-2.38s-1.43-2.38-3.2-2.38c-.55,0-.99,.33-.99,.74s.44,.74,.99,.74c.67,0,1.21,.4,1.21,.9s-.54,.9-1.21,.9h-4.96c-.55,0-.99,.33-.99,.74,0,.22,.13,.43,.35,.57l2.63,1.64c.42,.26,1.05,.22,1.4-.09s.3-.78-.12-1.04Z"></path>
      </g>
      <g id="LWPOLYLINE-3">
        <path d="M9.84,8.46l.54,.34h-2.24c-1.77,0-3.2,1.07-3.2,2.38,0,1.31,1.43,2.38,3.2,2.38,.55,0,.99-.33,.99-.74s-.44-.74-.99-.74c-.67,0-1.21-.4-1.21-.9s.54-.9,1.21-.9h4.96c.55,0,.99-.33,.99-.74,0-.22-.13-.43-.35-.57l-2.63-1.64c-.42-.26-1.05-.22-1.4,.09s-.3,.78,.12,1.04Z"></path>
      </g>
    </g>
  </symbol>
  <symbol id="mode" xmlns="http://www.w3.org/2000/svg" viewBox="0 0 24 24">
    <g id="LWPOLYLINE">
      <path d="M15.53,16.43l-.88-.55h3.64c2.88,0,5.21-1.74,5.21-3.88s-2.33-3.88-5.21-3.88c-.89,0-1.62,.54-1.62,1.2,0,.66,.72,1.2,1.62,1.2,1.09,0,1.98,.66,1.98,1.47s-.88,1.47-1.98,1.47H10.2c-.89,0-1.62,.54-1.62,1.2,0,.36,.21,.69,.58,.92l4.28,2.67c.68,.43,1.7,.36,2.28-.15,.57-.51,.48-1.27-.2-1.7Z"></path>
    </g>
    <g id="LWPOLYLINE-2">
      <path d="M8.47,7.57l.88,.55h-3.64c-2.88,0-5.21,1.74-5.21,3.88,0,2.14,2.33,3.88,5.21,3.88,.89,0,1.62-.54,1.62-1.2s-.72-1.2-1.62-1.2c-1.09,0-1.98-.66-1.98-1.47s.88-1.47,1.98-1.47H13.8c.89,0,1.62-.54,1.62-1.2,0-.36-.21-.69-.58-.92l-4.28-2.67c-.68-.43-1.7-.36-2.28,.15s-.48,1.27,.2,1.7Z"></path>
    </g>
  </symbol>
  <symbol id="notVisible" xmlns="http://www.w3.org/2000/svg" viewBox="0 0 24 24">
    <g>
      <path d="M22.82,13c-.39,0-.75-.22-.92-.6-.27-.61-.6-1.21-.99-1.76-.38-.55-.82-1.07-1.31-1.54-.49-.47-1.02-.9-1.59-1.27-.57-.38-1.19-.7-1.83-.96-.65-.27-1.33-.47-2.02-.61-1.42-.28-2.92-.28-4.34,0-.69,.14-1.37,.34-2.02,.61-.64,.26-1.25,.58-1.83,.96-.57,.37-1.1,.8-1.59,1.27-.48,.47-.93,.99-1.31,1.54-.39,.55-.72,1.15-.99,1.76-.22,.51-.81,.74-1.32,.52-.51-.22-.74-.81-.52-1.32,.32-.73,.72-1.44,1.18-2.1,.46-.66,.98-1.27,1.56-1.83,.58-.56,1.21-1.07,1.89-1.51,.68-.45,1.41-.83,2.16-1.14,.77-.32,1.57-.56,2.39-.72,1.68-.33,3.45-.33,5.12,0,.81,.16,1.62,.4,2.39,.72,.76,.31,1.48,.69,2.16,1.14,.67,.44,1.31,.95,1.89,1.51,.58,.56,1.1,1.17,1.56,1.83,.46,.66,.86,1.37,1.18,2.1,.22,.51,0,1.1-.52,1.32-.13,.06-.27,.08-.4,.08Z"></path>
      <path d="M12,19.95c-.86,0-1.72-.08-2.56-.25-.81-.16-1.62-.4-2.39-.72-.76-.31-1.48-.69-2.16-1.14-.67-.44-1.31-.95-1.89-1.51-.58-.56-1.1-1.17-1.56-1.83-.46-.66-.86-1.37-1.18-2.1-.22-.51,0-1.1,.52-1.32,.51-.22,1.1,0,1.32,.52,.27,.61,.6,1.21,.99,1.76,.38,.55,.82,1.07,1.31,1.54,.49,.47,1.02,.9,1.59,1.27,.57,.38,1.19,.7,1.83,.96,.65,.27,1.33,.47,2.02,.61,1.42,.28,2.92,.28,4.34,0,.69-.14,1.37-.34,2.02-.61,.64-.26,1.25-.58,1.83-.96,.57-.37,1.1-.8,1.59-1.27,.48-.47,.93-.99,1.31-1.54,.39-.55,.72-1.15,.99-1.76,.22-.51,.81-.74,1.32-.52,.51,.22,.74,.81,.52,1.32-.32,.73-.72,1.44-1.18,2.1-.46,.66-.98,1.27-1.56,1.83-.58,.56-1.21,1.07-1.89,1.51-.68,.45-1.41,.83-2.16,1.14-.77,.32-1.57,.56-2.39,.72-.84,.17-1.7,.25-2.56,.25Z"></path>
    </g>
    <circle cx="12" cy="12" r="4"></circle>
    <path d="M2.04,23.39c-.39,0-.77-.15-1.06-.44-.58-.59-.58-1.54,0-2.12L20.9,1.05c.59-.58,1.54-.58,2.12,0,.58,.59,.58,1.54,0,2.12L3.1,22.95c-.29,.29-.67,.44-1.06,.44Z"></path>
  </symbol>
  <symbol id="organization" xmlns="http://www.w3.org/2000/svg" viewBox="0 0 24 24">
    <g>
      <ellipse cx="12" cy="9.21" rx="3.77" ry="3.71"></ellipse>
      <path d="M17.87,20.92c.36,0,.66-.31,.63-.69-.31-3.74-3.1-6.67-6.5-6.67s-6.19,2.93-6.5,6.67c-.03,.37,.27,.69,.63,.69h11.74Z"></path>
    </g>
    <g>
      <path d="M5,8.79c1.6,0,2.9-1.28,2.9-2.85s-1.3-2.85-2.9-2.85-2.9,1.28-2.9,2.85,1.3,2.85,2.9,2.85Z"></path>
      <path d="M9.88,13.75c-.1-.51-.24-1-.45-1.46-.52-.43-.93-.99-1.17-1.63-.88-.85-2.01-1.37-3.26-1.37C2.39,9.29,.24,11.54,0,14.41c-.02,.29,.21,.53,.48,.53H7.81c.62-.52,1.32-.93,2.07-1.19Z"></path>
    </g>
    <g>
      <path d="M19,8.79c1.6,0,2.9-1.28,2.9-2.85s-1.3-2.85-2.9-2.85-2.9,1.28-2.9,2.85,1.3,2.85,2.9,2.85Z"></path>
      <path d="M19,9.29c-1.25,0-2.38,.52-3.26,1.37-.24,.64-.65,1.2-1.17,1.63-.21,.45-.35,.94-.45,1.46,.75,.27,1.45,.67,2.07,1.19h7.32c.27,0,.5-.24,.48-.53-.24-2.88-2.38-5.13-5-5.13Z"></path>
    </g>
  </symbol>
  <symbol id="participant" xmlns="http://www.w3.org/2000/svg" viewBox="0 0 24 24">
    <g>
      <ellipse cx="7.36" cy="8.62" rx="3.19" ry="3.14"></ellipse>
      <path d="M12.33,18.52c.3,0,.56-.27,.53-.58-.26-3.16-2.62-5.64-5.5-5.64s-5.24,2.48-5.5,5.64c-.03,.32,.23,.58,.53,.58H12.33Z"></path>
    </g>
    <path d="M14.18,8.96c-.55,0-1-.44-1-.99,0-.55,.44-1,.99-1.01l6.75-.06h0c.55,0,1,.44,1,.99,0,.55-.44,1-.99,1.01l-6.75,.06h0Z"></path>
    <path d="M22.49,20.33H1.44c-.75,0-1.36-.61-1.36-1.36V4.48c0-.75,.61-1.36,1.36-1.36H22.49c.75,0,1.36,.61,1.36,1.36v14.48c0,.75-.61,1.36-1.36,1.36ZM1.44,4.13c-.2,0-.36,.16-.36,.36v14.48c0,.2,.16,.36,.36,.36H22.49c.2,0,.36-.16,.36-.36V4.48c0-.2-.16-.36-.36-.36H1.44Z"></path>
    <path d="M12.69,12.49c-.55,0-1-.44-1-.99,0-.55,.44-1,.99-1.01l8.24-.08h0c.55,0,1,.44,1,.99,0,.55-.44,1-.99,1.01l-8.24,.08h0Z"></path>
    <path d="M14.18,15.97c-.55,0-1-.44-1-.99,0-.55,.44-1,.99-1.01l6.75-.06h0c.55,0,1,.44,1,.99,0,.55-.44,1-.99,1.01l-6.75,.06h0Z"></path>
  </symbol>
  <symbol id="protocol" xmlns="http://www.w3.org/2000/svg" viewBox="0 0 24 24">
    <path d="M19.15,23.67H4.85c-.55,0-1-.45-1-1V4.39c0-.55,.45-1,1-1h14.3c.55,0,1,.45,1,1V22.67c0,.55-.45,1-1,1Zm-12.46-2h10.62c.47,0,.84-.38,.84-.84V6.24c0-.47-.38-.84-.84-.84H6.69c-.47,0-.84,.38-.84,.84v14.59c0,.47,.38,.84,.84,.84Z"></path>
    <rect x="7.5" y="1.73" width="9" height="3.57" rx=".91" ry=".91"></rect>
    <ellipse cx="12" cy="2.11" rx="2.5" ry="1.77"></ellipse>
    <rect x="6.45" y="7.37" width="2.12" height="2.02" rx=".69" ry=".69"></rect>
    <rect x="6.45" y="11.04" width="2.12" height="2.02" rx=".69" ry=".69"></rect>
    <rect x="6.45" y="14.72" width="2.12" height="2.02" rx=".69" ry=".69"></rect>
    <rect x="6.45" y="18.39" width="2.12" height="2.02" rx=".69" ry=".69"></rect>
    <rect x="9.7" y="7.37" width="7.7" height="2.02" rx=".63" ry=".63"></rect>
    <rect x="9.7" y="11.04" width="7.7" height="2.02" rx=".63" ry=".63"></rect>
    <rect x="9.7" y="14.72" width="7.7" height="2.02" rx=".63" ry=".63"></rect>
    <rect x="9.7" y="18.39" width="7.7" height="2.02" rx=".63" ry=".63"></rect>
  </symbol>
  <symbol id="quit" xmlns="http://www.w3.org/2000/svg" viewBox="0 0 24 24">
    <g>
      <path d="M23.4,11.28l-7.09-4.63c-.57-.38-1.34,.04-1.34,.72v9.27c0,.69,.76,1.1,1.34,.72l7.09-4.63c.52-.34,.52-1.1,0-1.44Z"></path>
      <path d="M17.01,13.5H5.83c-.83,0-1.5-.67-1.5-1.5s.67-1.5,1.5-1.5h11.19c.83,0,1.5,.67,1.5,1.5s-.67,1.5-1.5,1.5Z"></path>
    </g>
    <path d="M16.06,23.75H1.65c-.83,0-1.5-.67-1.5-1.5V1.75C.15,.92,.82,.25,1.65,.25h14.41c.83,0,1.5,.67,1.5,1.5v2.42c0,.83-.67,1.5-1.5,1.5s-1.5-.67-1.5-1.5v-.92H3.15V20.75H14.56v-.75c0-.83,.67-1.5,1.5-1.5s1.5,.67,1.5,1.5v2.25c0,.83-.67,1.5-1.5,1.5Z"></path>
  </symbol>
  <symbol id="row" xmlns="http://www.w3.org/2000/svg" viewBox="0 0 24 24">
    <path d="M20,8.11l-16.11-.11c-1.1,0-1.86,.9-1.86,2v4c0,1.1,.76,2,1.86,2H20c1.1,0,2-.9,2-2v-4c0-1.1-.9-1.89-2-1.89ZM8,14H4v-4H8v4Zm6,0h-4v-4h4v4Zm6,0h-4v-4h4v4Z"></path>
  </symbol>
   <symbol id="save" xmlns="http://www.w3.org/2000/svg" viewBox="0 0 24 24">
    <path d="M22,23.21H4.11v-2H21V2.79H3v15H1V1.79c0-.55,.45-1,1-1H22c.55,0,1,.45,1,1V22.21c0,.55-.45,1-1,1Z"></path>
    <path d="M8.22,9.5c-.55,0-1-.44-1-.99l-.04-6.71c0-.55,.44-1,.99-1.01h0c.55,0,1,.44,1,.99l.04,6.71c0,.55-.44,1-.99,1.01h0Z"></path>
    <path d="M17.22,9.5H8.22c-.55,0-1-.45-1-1s.45-1,1-1h9c.55,0,1,.45,1,1s-.45,1-1,1Z"></path>
    <path d="M17.22,9.5c-.55,0-1-.45-1-1V1.79c0-.55,.45-1,1-1s1,.45,1,1v6.71c0,.55-.45,1-1,1Z"></path>
    <path d="M6.96,23.21c-.55,0-1-.44-1-.99l-.07-8.6c0-.55,.44-1,.99-1.01,.55-.02,1,.44,1.01,.99l.07,8.6c0,.55-.44,1-.99,1.01h0Z"></path>
    <path d="M18.11,23.21c-.55,0-1-.45-1-1V13.35c0-.55,.45-1,1-1s1,.45,1,1v8.86c0,.55-.45,1-1,1Z"></path>
    <path d="M18.11,14.35H6.93c-.55,0-1-.45-1-1s.45-1,1-1h11.19c.55,0,1,.45,1,1s-.45,1-1,1Z"></path>
    <path d="M15.26,17.31h-5.78c-.55,0-1-.45-1-1s.45-1,1-1h5.78c.55,0,1,.45,1,1s-.45,1-1,1Z"></path>
    <path d="M15.26,20.07h-5.78c-.55,0-1-.45-1-1s.45-1,1-1h5.78c.55,0,1,.45,1,1s-.45,1-1,1Z"></path>
    <g>
      <line x1="2" y1="17.78" x2="4.11" y2="22.21"></line>
      <path d="M4.11,23.21c-.37,0-.73-.21-.9-.57l-2.11-4.43c-.24-.5-.03-1.1,.47-1.33,.5-.24,1.1-.03,1.33,.47l2.11,4.43c.24,.5,.03,1.1-.47,1.33-.14,.07-.29,.1-.43,.1Z"></path>
    </g>
  </symbol>
  <symbol id="shutdown" xmlns="http://www.w3.org/2000/svg" viewBox="0 0 24 24">
    <path d="M14.68,2.78v1.46c0,.33,.2,.61,.5,.75,2.99,1.4,4.91,4.72,4.16,8.36-.59,2.88-2.92,5.2-5.81,5.77-4.8,.95-9.02-2.71-9.02-7.35,0-3,1.77-5.58,4.32-6.78,.3-.14,.5-.43,.5-.76v-1.45c0-.58-.59-.99-1.13-.78C3.73,3.74,.74,8.44,1.67,13.69c.75,4.21,4.12,7.61,8.33,8.4,6.67,1.24,12.5-3.87,12.5-10.31,0-4.44-2.78-8.24-6.69-9.77-.54-.21-1.13,.2-1.13,.78Z"></path>
    <path d="M12,9.23c-.83,0-1.5-.67-1.5-1.5V1.73c0-.83,.67-1.5,1.5-1.5s1.5,.67,1.5,1.5V7.73c0,.83-.67,1.5-1.5,1.5Z"></path>
  </symbol>
  <symbol id="synced" xmlns="http://www.w3.org/2000/svg" viewBox="0 0 30 24">
    <path d="M9.47,10.98c-.33-1.79-1.78-3.13-3.53-3.13-1.39,0-2.59,.85-3.19,2.09-1.44,.17-2.57,1.49-2.57,3.09,0,1.71,1.29,3.11,2.88,3.11h6.24c1.32,0,2.4-1.16,2.4-2.59s-.98-2.48-2.23-2.57Z"></path>
    <g>
      <path d="M27.21,7.95h-6.5c-.54,0-.99,.4-.99,.88v5.81c0,.49,.44,.88,.99,.88h6.5c.54,0,.99-.4,.99-.88v-5.81c0-.49-.44-.88-.99-.88Zm-.3,5.98h-5.9c-.17,0-.31-.12-.31-.28v-4.52c0-.15,.14-.28,.31-.28h5.9c.17,0,.31,.12,.31,.28v4.52c0,.15-.14,.28-.31,.28Z"></path>
      <path d="M28.9,17.05h-9.88c-.55,0-1-.45-1-1s.45-1,1-1h9.88c.55,0,1,.45,1,1s-.45,1-1,1Z"></path>
    </g>
    <path d="M12.16,12.18l.51-.51c.14-.14,.37-.14,.51,0l1,1c.14,.14,.37,.14,.51,0l3.24-3.24c.14-.14,.37-.14,.51,0l.51,.51c.14,.14,.14,.37,0,.51l-4.26,4.26c-.14,.14-.37,.14-.51,0l-2.02-2.02c-.14-.14-.14-.37,0-.51Z"></path>
  </symbol>
  <symbol id="thickness1" xmlns="http://www.w3.org/2000/svg" viewBox="0 0 24 24">
    <g>
      <path d="M3.58,1.82L1.04,5.7c-.26,.4,.03,.92,.5,.92H6.62c.47,0,.76-.53,.5-.92L4.58,1.82c-.24-.36-.76-.36-1,0Z"></path>
      <path d="M11.5,1.82l-2.54,3.88c-.26,.4,.03,.92,.5,.92h5.08c.47,0,.76-.53,.5-.92l-2.54-3.88c-.24-.36-.76-.36-1,0Z"></path>
      <path d="M19.42,1.82l-2.54,3.88c-.26,.4,.03,.92,.5,.92h5.08c.47,0,.76-.53,.5-.92l-2.54-3.88c-.24-.36-.76-.36-1,0Z"></path>
    </g>
    <g>
      <path d="M3.58,23.07l-2.54-3.88c-.26-.4,.03-.92,.5-.92H6.62c.47,0,.76,.53,.5,.92l-2.54,3.88c-.24,.36-.76,.36-1,0Z"></path>
      <path d="M11.5,23.07l-2.54-3.88c-.26-.4,.03-.92,.5-.92h5.08c.47,0,.76,.53,.5,.92l-2.54,3.88c-.24,.36-.76,.36-1,0Z"></path>
      <path d="M19.42,23.07l-2.54-3.88c-.26-.4,.03-.92,.5-.92h5.08c.47,0,.76,.53,.5,.92l-2.54,3.88c-.24,.36-.76,.36-1,0Z"></path>
    </g>
    <rect x="3.08" y="6.63" width="2" height="11.64"></rect>
    <rect x="11" y="6.63" width="2" height="11.64"></rect>
    <rect x="18.92" y="6.63" width="2" height="11.64"></rect>
  </symbol>
  <symbol id="thickness2" xmlns="http://www.w3.org/2000/svg" viewBox="0 0 24 24">
    <path d="M22.84,10.37H1.16c-.28,0-.5-.22-.5-.5s.22-.5,.5-.5H22.84c.28,0,.5,.22,.5,.5s-.22,.5-.5,.5Z"></path>
    <path d="M22.84,14.75H1.16c-.28,0-.5-.22-.5-.5s.22-.5,.5-.5H22.84c.28,0,.5,.22,.5,.5s-.22,.5-.5,.5Z"></path>
    <g>
      <path d="M11.5,15.1l-2.54,3.88c-.26,.4,.03,.92,.5,.92h5.08c.47,0,.76-.53,.5-.92l-2.54-3.88c-.24-.36-.76-.36-1,0Z"></path>
      <path d="M12,23.97c-.55,0-1-.45-1-1v-3.19c0-.55,.45-1,1-1s1,.45,1,1v3.19c0,.55-.45,1-1,1Z"></path>
    </g>
    <g>
      <path d="M11.5,8.8l-2.54-3.88c-.26-.4,.03-.92,.5-.92h5.08c.47,0,.76,.53,.5,.92l-2.54,3.88c-.24,.36-.76,.36-1,0Z"></path>
      <path d="M12,5.12c-.55,0-1-.45-1-1V.93c0-.55,.45-1,1-1s1,.45,1,1v3.19c0,.55-.45,1-1,1Z"></path>
    </g>
    <path d="M1.16,14.5c-.05,0-.1-.02-.15-.05-.11-.08-.14-.24-.05-.35l3.22-4.38c.08-.11,.24-.13,.35-.05,.11,.08,.14,.24,.05,.35L1.36,14.4c-.05,.07-.12,.1-.2,.1Z"></path>
    <path d="M3.83,14.5c-.05,0-.1-.02-.15-.05-.11-.08-.14-.24-.05-.35l3.22-4.38c.08-.11,.24-.13,.35-.05,.11,.08,.14,.24,.05,.35l-3.22,4.38c-.05,.07-.12,.1-.2,.1Z"></path>
    <path d="M6.5,14.5c-.05,0-.1-.02-.15-.05-.11-.08-.14-.24-.05-.35l3.22-4.38c.08-.11,.24-.13,.35-.05,.11,.08,.14,.24,.05,.35l-3.22,4.38c-.05,.07-.12,.1-.2,.1Z"></path>
    <path d="M9.18,14.5c-.05,0-.1-.02-.15-.05-.11-.08-.14-.24-.05-.35l3.22-4.38c.08-.11,.24-.13,.35-.05,.11,.08,.14,.24,.05,.35l-3.22,4.38c-.05,.07-.12,.1-.2,.1Z"></path>
    <path d="M11.85,14.5c-.05,0-.1-.02-.15-.05-.11-.08-.14-.24-.05-.35l3.22-4.38c.08-.11,.24-.13,.35-.05,.11,.08,.14,.24,.05,.35l-3.22,4.38c-.05,.07-.12,.1-.2,.1Z"></path>
    <path d="M14.52,14.5c-.05,0-.1-.02-.15-.05-.11-.08-.14-.24-.05-.35l3.22-4.38c.08-.11,.24-.13,.35-.05,.11,.08,.14,.24,.05,.35l-3.22,4.38c-.05,.07-.12,.1-.2,.1Z"></path>
    <path d="M17.19,14.5c-.05,0-.1-.02-.15-.05-.11-.08-.14-.24-.05-.35l3.22-4.38c.08-.11,.24-.13,.35-.05,.11,.08,.14,.24,.05,.35l-3.22,4.38c-.05,.07-.12,.1-.2,.1Z"></path>
    <path d="M19.87,14.5c-.05,0-.1-.02-.15-.05-.11-.08-.14-.24-.05-.35l3.22-4.38c.08-.11,.24-.13,.35-.05,.11,.08,.14,.24,.05,.35l-3.22,4.38c-.05,.07-.12,.1-.2,.1Z"></path>
  </symbol>
  <symbol id="thickness3" xmlns="http://www.w3.org/2000/svg" viewBox="0 0 24 24">
    <path d="M22.77,23.7H1.08c-.55,0-1-.45-1-1s.45-1,1-1H22.77c.55,0,1,.45,1,1s-.45,1-1,1Z"></path>
    <path d="M22.97,2.3H1.28C.72,2.3,.28,1.85,.28,1.3S.72,.3,1.28,.3H22.97c.55,0,1,.45,1,1s-.45,1-1,1Z"></path>
    <g>
      <g>
        <path d="M3.5,21.02l-2.54-3.88c-.26-.4,.03-.92,.5-.92H6.54c.47,0,.76,.53,.5,.92l-2.54,3.88c-.24,.36-.76,.36-1,0Z"></path>
        <path d="M4,17.22c-.55,0-1-.45-1-1V7.82c0-.55,.45-1,1-1s1,.45,1,1v8.4c0,.55-.45,1-1,1Z"></path>
      </g>
      <path d="M3.5,3.01L.96,6.9c-.26,.4,.03,.92,.5,.92H6.54c.47,0,.76-.53,.5-.92l-2.54-3.88c-.24-.36-.76-.36-1,0Z"></path>
    </g>
    <g>
      <g>
        <path d="M11.7,21.02l-2.54-3.88c-.26-.4,.03-.92,.5-.92h5.08c.47,0,.76,.53,.5,.92l-2.54,3.88c-.24,.36-.76,.36-1,0Z"></path>
        <path d="M12.2,17.22c-.55,0-1-.45-1-1V7.82c0-.55,.45-1,1-1s1,.45,1,1v8.4c0,.55-.45,1-1,1Z"></path>
      </g>
      <path d="M11.7,3.01l-2.54,3.88c-.26,.4,.03,.92,.5,.92h5.08c.47,0,.76-.53,.5-.92l-2.54-3.88c-.24-.36-.76-.36-1,0Z"></path>
    </g>
    <g>
      <g>
        <path d="M19.91,21.02l-2.54-3.88c-.26-.4,.03-.92,.5-.92h5.08c.47,0,.76,.53,.5,.92l-2.54,3.88c-.24,.36-.76,.36-1,0Z"></path>
        <path d="M20.41,17.22c-.55,0-1-.45-1-1V7.82c0-.55,.45-1,1-1s1,.45,1,1v8.4c0,.55-.45,1-1,1Z"></path>
      </g>
      <path d="M19.91,3.01l-2.54,3.88c-.26,.4,.03,.92,.5,.92h5.08c.47,0,.76-.53,.5-.92l-2.54-3.88c-.24-.36-.76-.36-1,0Z"></path>
    </g>
  </symbol>
  <symbol id="update" xmlns="http://www.w3.org/2000/svg" viewBox="0 0 24 24">
    <path d="M4.1,14.64c.29,0,.54,.18,.65,.45,1.19,2.82,3.99,4.79,7.24,4.79,1.89,0,3.61-.67,4.96-1.77,.33-.27,.37-.77,.07-1.07l-1.19-1.19c-.45-.45-.13-1.22,.5-1.22h5.44c.39,0,.71,.32,.71,.71v5.43c0,.63-.77,.95-1.22,.5l-1.4-1.39c-.27-.27-.7-.27-.99-.01-1.84,1.62-4.25,2.62-6.9,2.62-4.54,0-8.39-2.87-9.86-6.9-.17-.47,.17-.97,.67-.97h1.29Zm.49-10.04c1.89-1.9,4.5-3.09,7.4-3.09,4.54,0,8.39,2.87,9.86,6.9,.17,.47-.17,.97-.67,.97h-1.29c-.29,0-.54-.18-.65-.45-1.19-2.82-3.99-4.79-7.24-4.79-1.89,0-3.61,.67-4.96,1.77-.33,.27-.37,.77-.07,1.07l1.19,1.19c.45,.45,.13,1.22-.5,1.22H2.21c-.39,0-.71-.32-.71-.71V3.22c0-.63,.77-.95,1.22-.5l1.88,1.88"></path>
  </symbol>
  <symbol id="usb" xmlns="http://www.w3.org/2000/svg" viewBox="0 0 24 24">
    <path d="M17.96,23.89H6.04c-.55,0-1-.45-1-1V8.15c0-.55,.45-1,1-1h11.93c.55,0,1,.45,1,1v14.74c0,.55-.45,1-1,1Zm-10.93-2h9.93V9.15H7.04v12.74Z"></path>
    <circle cx="12" cy="19.76" r="1.29"></circle>
    <path d="M12,19.4c-.28,0-.5-.22-.5-.5V10.67c0-.28,.22-.5,.5-.5s.5,.22,.5,.5v8.23c0,.28-.22,.5-.5,.5Z"></path>
    <path d="M12,15.43c-.22,0-.42-.14-.48-.36-.08-.27,.07-.54,.34-.62l3.15-.93c.27-.08,.54,.07,.62,.34,.08,.27-.07,.54-.34,.62l-3.15,.93s-.09,.02-.14,.02Z"></path>
    <path d="M15.23,14.37c-.26,0-.48-.21-.5-.47l-.11-2.16c-.01-.28,.2-.51,.47-.53,.27-.02,.51,.2,.53,.47l.11,2.16c.01,.28-.2,.51-.47,.53,0,0-.02,0-.03,0Z"></path>
    <path d="M12,17.46c-.06,0-.12-.01-.18-.03l-2.5-.94c-.26-.1-.39-.39-.29-.64,.1-.26,.38-.39,.64-.29l2.5,.94c.26,.1,.39,.39,.29,.64-.08,.2-.27,.32-.47,.32Z"></path>
    <path d="M9.5,16.52c-.27,0-.49-.21-.5-.48l-.1-2.54c-.01-.28,.2-.51,.48-.52,.25-.02,.51,.2,.52,.48l.1,2.54c.01,.28-.2,.51-.48,.52,0,0-.01,0-.02,0Z"></path>
    <path d="M7.96,8.65c-.28,0-.5-.22-.5-.5V.74c0-.28,.22-.5,.5-.5s.5,.22,.5,.5v7.41c0,.28-.22,.5-.5,.5Z"></path>
    <path d="M16.04,8.65c-.28,0-.5-.22-.5-.5V.74c0-.28,.22-.5,.5-.5s.5,.22,.5,.5v7.41c0,.28-.22,.5-.5,.5Z"></path>
    <path d="M16.04,1.24H7.96c-.28,0-.5-.22-.5-.5s.22-.5,.5-.5h8.07c.28,0,.5,.22,.5,.5s-.22,.5-.5,.5Z"></path>
    <path d="M10.6,6.55c-.28,0-.5-.22-.5-.5V2.64c0-.28,.22-.5,.5-.5s.5,.22,.5,.5v3.41c0,.28-.22,.5-.5,.5Z"></path>
    <path d="M13.57,6.55c-.28,0-.5-.22-.5-.5V2.64c0-.28,.22-.5,.5-.5s.5,.22,.5,.5v3.41c0,.28-.22,.5-.5,.5Z"></path>
  </symbol>
  <symbol id="user" xmlns="http://www.w3.org/2000/svg" viewBox="0 0 24 24">
    <ellipse cx="12" cy="6.16" rx="5.52" ry="5.42"></ellipse>
    <path d="M20.58,23.26c.52,0,.96-.46,.91-1-.45-5.46-4.53-9.74-9.5-9.74S2.95,16.8,2.5,22.26c-.04,.54,.39,1,.91,1H20.58Z"></path>
  </symbol>
  <symbol id="visible" xmlns="http://www.w3.org/2000/svg" viewBox="0 0 24 24">
    <g>
      <path d="M22.82,13c-.39,0-.75-.22-.92-.6-.27-.61-.6-1.21-.99-1.76-.38-.55-.82-1.07-1.31-1.54-.49-.47-1.02-.9-1.59-1.27-.57-.38-1.19-.7-1.83-.96-.65-.27-1.33-.47-2.02-.61-1.42-.28-2.92-.28-4.34,0-.69,.14-1.37,.34-2.02,.61-.64,.26-1.25,.58-1.83,.96-.57,.37-1.1,.8-1.59,1.27-.48,.47-.93,.99-1.31,1.54-.39,.55-.72,1.15-.99,1.76-.22,.51-.81,.74-1.32,.52-.51-.22-.74-.81-.52-1.32,.32-.73,.72-1.44,1.18-2.1,.46-.66,.98-1.27,1.56-1.83,.58-.56,1.21-1.07,1.89-1.51,.68-.45,1.41-.83,2.16-1.14,.77-.32,1.57-.56,2.39-.72,1.68-.33,3.45-.33,5.12,0,.81,.16,1.62,.4,2.39,.72,.76,.31,1.48,.69,2.16,1.14,.67,.44,1.31,.95,1.89,1.51,.58,.56,1.1,1.17,1.56,1.83,.46,.66,.86,1.37,1.18,2.1,.22,.51,0,1.1-.52,1.32-.13,.06-.27,.08-.4,.08Z"></path>
      <path d="M12,19.95c-.86,0-1.72-.08-2.56-.25-.81-.16-1.62-.4-2.39-.72-.76-.31-1.48-.69-2.16-1.14-.67-.44-1.31-.95-1.89-1.51-.58-.56-1.1-1.17-1.56-1.83-.46-.66-.86-1.37-1.18-2.1-.22-.51,0-1.1,.52-1.32,.5-.22,1.09,0,1.32,.52,.27,.61,.6,1.21,.99,1.76,.38,.55,.82,1.07,1.31,1.54,.49,.47,1.02,.9,1.59,1.27,.57,.38,1.19,.7,1.83,.96,.65,.27,1.33,.47,2.02,.61,1.42,.28,2.92,.28,4.34,0,.69-.14,1.37-.34,2.02-.61,.64-.26,1.25-.58,1.83-.96,.57-.37,1.1-.8,1.59-1.27,.48-.47,.93-.99,1.31-1.54,.39-.55,.72-1.15,.99-1.76,.22-.51,.81-.74,1.32-.52,.51,.22,.74,.81,.52,1.32-.32,.73-.72,1.44-1.18,2.1-.46,.66-.98,1.27-1.56,1.83-.58,.56-1.21,1.07-1.89,1.51-.68,.45-1.41,.83-2.16,1.14-.77,.32-1.57,.56-2.39,.72-.84,.17-1.7,.25-2.56,.25Z"></path>
    </g>
    <circle cx="12" cy="12" r="4"></circle>
  </symbol>
  <symbol id="warning" xmlns="http://www.w3.org/2000/svg" viewBox="0 0 24 24">
    <path d="M22.47,19.5L13.08,3.25c-.48-.83-1.68-.83-2.16,0L1.53,19.5c-.48,.83,.12,1.87,1.08,1.87H21.38c.96,0,1.56-1.04,1.08-1.87ZM10.52,7.65c0-.63,.52-1.15,1.15-1.15h.65c.63,0,1.15,.52,1.15,1.15v6.17c0,.63-.52,1.15-1.15,1.15h-.65c-.63,0-1.15-.52-1.15-1.15V7.65Zm2.98,10.73c0,.57-.47,1.04-1.04,1.04h-.93c-.57,0-1.04-.47-1.04-1.04v-.93c0-.57,.47-1.04,1.04-1.04h.93c.57,0,1.04,.47,1.04,1.04v.93Z"></path>
  </symbol>
  <symbol id="wifi" xmlns="http://www.w3.org/2000/svg" viewBox="0 0 24 24">
    <circle cx="12" cy="20.71" r="2.5"></circle>
    <path d="M16.5,17.33c-.33,0-.67-.11-.95-.34-.45-.37-.97-.66-1.56-.86-1.25-.43-2.72-.43-3.97,0-.59,.2-1.11,.49-1.56,.86-.64,.53-1.59,.43-2.11-.21-.52-.64-.43-1.59,.21-2.11,.72-.59,1.56-1.05,2.48-1.37,1.89-.65,4.05-.65,5.94,0,.93,.32,1.76,.78,2.48,1.37,.64,.52,.74,1.47,.21,2.11-.3,.36-.73,.55-1.16,.55Z"></path>
    <path d="M19.5,12.34c-.33,0-.67-.11-.95-.34-.84-.69-1.82-1.23-2.91-1.61-2.3-.8-4.98-.8-7.28,0-1.09,.38-2.08,.92-2.91,1.61-.64,.53-1.59,.43-2.11-.21-.53-.64-.43-1.59,.21-2.11,1.11-.91,2.4-1.62,3.83-2.12,2.93-1.02,6.31-1.02,9.24,0,1.43,.5,2.72,1.21,3.83,2.12,.64,.52,.73,1.47,.21,2.11-.3,.36-.73,.55-1.16,.55Z"></path>
    <path d="M22.5,7.35c-.33,0-.67-.11-.95-.34-1.23-1.01-2.66-1.8-4.26-2.35-3.34-1.16-7.23-1.16-10.58,0-1.6,.55-3.03,1.35-4.26,2.35-.64,.53-1.59,.43-2.11-.21-.53-.64-.43-1.59,.21-2.11,1.5-1.23,3.24-2.19,5.18-2.87C9.71,.44,14.29,.44,18.27,1.82c1.94,.67,3.68,1.63,5.18,2.87,.64,.52,.73,1.47,.21,2.11-.3,.36-.73,.55-1.16,.55Z"></path>
  </symbol>
  <symbol id="zoomInHorizantal" xmlns="http://www.w3.org/2000/svg" viewBox="0 0 24 24">z
    <g>
      <path d="M17.68,14.27h-.74l-.26-.25c1.12-1.31,1.7-3.09,1.38-4.99-.43-2.6-2.6-4.67-5.22-4.99-3.95-.48-7.27,2.84-6.79,6.79,.32,2.62,2.39,4.79,4.99,5.22,1.9,.32,3.68-.26,4.99-1.38l.25,.26v.74l4.1,4.09c.32,.32,.83,.32,1.15,0l.25-.25c.32-.32,.32-.83,0-1.15l-4.09-4.1Zm-4.94-.05c-2.85,.43-5.25-1.97-4.82-4.82,.27-1.77,1.72-3.22,3.49-3.49,2.85-.43,5.25,1.97,4.82,4.82-.27,1.77-1.72,3.22-3.49,3.49Z"></path>
      <rect x="8.71" y="9.37" width="6.73" height="1.4" rx=".7" ry=".7"></rect>
      <rect x="8.71" y="9.37" width="6.73" height="1.4" rx=".7" ry=".7" transform="translate(2 22.14) rotate(-90)"></rect>
    </g>
    <g>
      <path d="M23.82,9.69l-1.74-1.85c-.24-.25-.66-.08-.66,.26v3.7c0,.34,.42,.51,.66,.26l1.74-1.85c.14-.15,.14-.38,0-.52Z"></path>
      <rect x="18.39" y="9.26" width="4.12" height="1.39" rx=".49" ry=".49"></rect>
    </g>
    <g>
      <path d="M.18,9.69l1.74-1.85c.24-.25,.66-.08,.66,.26v3.7c0,.34-.42,.51-.66,.26L.18,10.21c-.14-.15-.14-.38,0-.52Z"></path>
      <rect x="1.5" y="9.26" width="4.12" height="1.39" rx=".49" ry=".49" transform="translate(7.11 19.9) rotate(-180)"></rect>
    </g>
  </symbol>
  <symbol id="zoomInVertical" xmlns="http://www.w3.org/2000/svg" viewBox="0 0 24 24">
    <g>
      <path d="M17.38,16.06h-.72l-.26-.25c1.1-1.28,1.66-3.03,1.35-4.89-.43-2.55-2.55-4.57-5.11-4.88-3.87-.47-7.12,2.78-6.65,6.65,.31,2.56,2.34,4.69,4.88,5.11,1.86,.31,3.61-.25,4.89-1.35l.25,.26v.72l4.22,4.21c.2,.2,.51,.2,.71,0l.66-.66c.2-.2,.2-.51,0-.71l-4.21-4.22Zm-5.49,0c-2.28,0-4.12-1.84-4.12-4.12s1.84-4.12,4.12-4.12,4.12,1.84,4.12,4.12-1.84,4.12-4.12,4.12Z"></path>
      <path d="M14.17,12.4h-1.83v1.83h-.91v-1.83h-1.83v-.91h1.83v-1.83h.91v1.83h1.83v.91Z"></path>
    </g>
    <g>
      <line x1="12" y1="5.5" x2="12"></line>
      <g>
        <rect x="11.5" y="2.73" width="1" height="2.77"></rect>
        <polygon points="13.89 3.28 12 0 10.11 3.28 13.89 3.28"></polygon>
      </g>
    </g>
    <g>
      <line x1="12" y1="18.5" x2="12" y2="24"></line>
      <g>
        <rect x="11.5" y="18.5" width="1" height="2.77"></rect>
        <polygon points="10.11 20.72 12 24 13.89 20.72 10.11 20.72"></polygon>
      </g>
    </g>
  </symbol>
  <symbol id="zoomIn" xmlns="http://www.w3.org/2000/svg" viewBox="0 0 24 24">
    <path d="M17.54,15.52h-1.06l-.38-.36c1.61-1.88,2.44-4.44,1.98-7.17-.62-3.74-3.74-6.71-7.5-7.17C4.9,.13,.13,4.9,.82,10.58c.46,3.76,3.43,6.88,7.17,7.5,2.73,.46,5.29-.37,7.17-1.98l.36,.38v1.06l5.89,5.88c.46,.45,1.19,.45,1.65,0l.35-.35c.46-.46,.46-1.19,0-1.65l-5.88-5.89Zm-7.1-.07c-4.09,.62-7.54-2.83-6.92-6.92,.39-2.55,2.47-4.63,5.02-5.02,4.09-.62,7.54,2.83,6.92,6.92-.39,2.55-2.47,4.63-5.02,5.02Z"></path>
    <rect x="4.65" y="8.48" width="9.67" height="2.01" rx="1" ry="1"></rect>
    <rect x="4.65" y="8.48" width="9.67" height="2.01" rx="1" ry="1" transform="translate(0 18.97) rotate(-90)"></rect>
  </symbol>
  <symbol id="zoomOutHorizantal" xmlns="http://www.w3.org/2000/svg" viewBox="0 0 24 24">
    <g>
      <path d="M17.61,14.27h-.74l-.26-.25c1.12-1.31,1.7-3.09,1.38-4.99-.43-2.6-2.6-4.67-5.22-4.99-3.95-.48-7.27,2.84-6.79,6.79,.32,2.62,2.39,4.79,4.99,5.22,1.9,.32,3.68-.26,4.99-1.38l.25,.26v.74l4.1,4.09c.32,.32,.83,.32,1.15,0l.25-.25c.32-.32,.32-.83,0-1.15l-4.09-4.1Zm-4.94-.05c-2.85,.43-5.25-1.97-4.82-4.82,.27-1.77,1.72-3.22,3.49-3.49,2.85-.43,5.25,1.97,4.82,4.82-.27,1.77-1.72,3.22-3.49,3.49Z"></path>
      <rect x="8.64" y="9.37" width="6.73" height="1.4" rx=".65" ry=".65"></rect>
    </g>
    <g>
      <path d="M23.82,9.68l-1.74-1.85c-.24-.25-.66-.08-.66,.26v3.7c0,.34,.42,.51,.66,.26l1.74-1.85c.14-.15,.14-.38,0-.52Z"></path>
      <rect x="18.38" y="9.24" width="4.12" height="1.39" rx=".49" ry=".49"></rect>
    </g>
    <g>
      <path d="M.18,9.68l1.74-1.85c.24-.25,.66-.08,.66,.26v3.7c0,.34-.42,.51-.66,.26L.18,10.2c-.14-.15-.14-.38,0-.52Z"></path>
      <rect x="1.5" y="9.24" width="4.12" height="1.39" rx=".49" ry=".49" transform="translate(7.11 19.88) rotate(-180)"></rect>
    </g>
  </symbol>
  <symbol id="zoomOutVertical" xmlns="http://www.w3.org/2000/svg" viewBox="0 0 24 24">
    <path d="M17.56,16.06h-.72l-.26-.25c.9-1.04,1.44-2.4,1.44-3.87,0-3.28-2.66-5.95-5.95-5.95s-5.95,2.66-5.95,5.95,2.66,5.95,5.95,5.95c1.47,0,2.83-.54,3.87-1.44l.25,.26v.72l4.57,4.56,1.36-1.36-4.56-4.57Zm-5.49,0c-2.28,0-4.12-1.84-4.12-4.12s1.84-4.12,4.12-4.12,4.12,1.84,4.12,4.12-1.84,4.12-4.12,4.12Zm-2.29-4.57h4.57v.91h-4.57v-.91Z"></path>
    <g>
      <line x1="12" y1="5.5" x2="12" y2="0"></line>
      <g>
        <rect x="11.5" y="2.73" width="1" height="2.77"></rect>
        <polygon points="13.89 3.28 12 0 10.11 3.28 13.89 3.28"></polygon>
      </g>
    </g>
    <g>
      <line x1="12.01" y1="18.5" x2="12.01" y2="24"></line>
      <g>
        <rect x="11.51" y="18.5" width="1" height="2.77"></rect>
        <polygon points="10.11 20.72 12.01 24 13.9 20.72 10.11 20.72"></polygon>
      </g>
    </g>
  </symbol>
  <symbol id="zoomOut" xmlns="http://www.w3.org/2000/svg" viewBox="0 0 24 24">
    <path d="M17.28,15.27h-1.06l-.38-.36c1.61-1.88,2.44-4.44,1.98-7.17-.62-3.74-3.74-6.71-7.5-7.17C4.64-.13-.13,4.64,.57,10.33c.46,3.76,3.43,6.88,7.17,7.5,2.73,.46,5.29-.37,7.17-1.98l.36,.38v1.06l5.89,5.88c.46,.45,1.19,.45,1.65,0l.35-.35c.46-.46,.46-1.19,0-1.65l-5.88-5.89Zm-7.1-.07c-4.09,.62-7.54-2.83-6.92-6.92,.39-2.55,2.47-4.63,5.02-5.02,4.09-.62,7.54,2.83,6.92,6.92-.39,2.55-2.47,4.63-5.02,5.02Z"></path>
    <rect x="4.39" y="8.22" width="9.67" height="2.01" rx="1" ry="1"></rect>
  </symbol>
  <symbol id="csv" xmlns="http://www.w3.org/2000/svg" viewBox="0 0 24 24">
    <defs></defs>
    <path d="M14.81,6.82l5.87-.53L13.86,.37l.3,5.89c.02,.34,.31,.59,.65,.56Z"></path>
    <g>
      <path d="M6.47,15.05c-.24,0-.45,.04-.63,.11-.19,.07-.34,.18-.47,.31-.13,.13-.23,.29-.3,.48-.04,.11-.04,.24-.06,.36v.66c.02,.09,.04,.18,.07,.27,.08,.19,.18,.35,.32,.48,.13,.13,.29,.22,.48,.28,.18,.06,.38,.09,.59,.09,.12,0,.24-.01,.35-.03,.06-.01,.12-.04,.18-.06v-2.84c-.06-.02-.11-.04-.17-.06-.12-.03-.24-.04-.36-.04Z"></path>
      <path d="M18.67,4.55V21.63H7.01v-2.85c-.05,.01-.11,.03-.16,.04-.12,.02-.25,.03-.37,.03-.31,0-.61-.05-.89-.15-.21-.07-.4-.18-.57-.3v4.23c0,.55,.45,1,1,1h13.67c.55,0,1-.45,1-1V6.29l-2-1.74Z"></path>
      <path d="M6.47,14.28c.18,0,.36,.02,.54,.06V2.37h9.15L13.85,.37H6.01c-.55,0-1,.45-1,1V14.75c.16-.12,.33-.22,.52-.29,.29-.11,.6-.17,.94-.17Z"></path>
    </g>
    <path d="M15.72,13.07H4.14c-.45,0-.82,.37-.82,.82v5.15c0,.45,.37,.82,.82,.82H15.72c.45,0,.82-.37,.82-.82v-5.15c0-.45-.37-.82-.82-.82Zm-8.17,5.53c-.11,.06-.23,.1-.35,.14-.12,.04-.24,.06-.36,.08s-.25,.03-.37,.03c-.31,0-.61-.05-.89-.15s-.53-.24-.75-.43c-.22-.19-.39-.43-.52-.72-.13-.29-.19-.62-.19-1,0-.33,.06-.63,.17-.91,.12-.28,.28-.52,.49-.72,.21-.2,.46-.36,.75-.47,.29-.11,.6-.17,.94-.17,.19,0,.38,.02,.56,.06,.18,.04,.36,.1,.52,.19,.11,.06,.18,.14,.2,.26s-.01,.23-.09,.33c-.06,.08-.13,.12-.22,.13-.09,0-.18,0-.27-.05-.1-.05-.21-.08-.33-.11-.12-.03-.24-.04-.36-.04-.24,0-.45,.04-.63,.11-.19,.07-.34,.18-.47,.31-.13,.13-.23,.29-.3,.48-.07,.18-.1,.39-.1,.61,0,.26,.04,.49,.11,.68s.18,.35,.32,.48c.13,.13,.29,.22,.48,.28,.18,.06,.38,.09,.59,.09,.12,0,.24-.01,.35-.03,.12-.02,.23-.06,.34-.12,.09-.04,.18-.06,.27-.04,.09,.01,.16,.06,.23,.13,.09,.11,.12,.22,.09,.33-.02,.11-.09,.19-.2,.25Zm3.81-.37c-.16,.2-.36,.35-.62,.46-.26,.11-.53,.16-.83,.16s-.58-.04-.82-.11-.48-.21-.7-.39c-.06-.05-.1-.1-.13-.16-.03-.06-.05-.12-.05-.18,0-.1,.04-.18,.11-.26,.07-.07,.16-.11,.27-.11,.08,0,.16,.03,.22,.08,.17,.13,.33,.23,.49,.3,.16,.07,.37,.1,.6,.1,.16,0,.31-.02,.45-.07,.13-.05,.24-.12,.33-.2,.08-.08,.12-.18,.12-.28,0-.13-.04-.24-.12-.33-.08-.09-.2-.17-.36-.23-.16-.06-.37-.11-.62-.14-.24-.03-.44-.09-.62-.16s-.33-.16-.45-.27c-.12-.11-.21-.24-.27-.38-.06-.15-.09-.31-.09-.5,0-.28,.07-.51,.22-.71,.15-.2,.34-.34,.59-.45,.25-.1,.52-.15,.82-.15,.28,0,.55,.04,.79,.12s.44,.19,.59,.32c.13,.1,.19,.21,.19,.34,0,.09-.04,.18-.11,.26-.07,.08-.16,.11-.26,.11-.07,0-.12-.02-.18-.06-.07-.06-.16-.12-.28-.17-.12-.05-.24-.1-.37-.13s-.25-.05-.37-.05c-.19,0-.35,.02-.47,.07-.13,.05-.23,.11-.29,.19-.07,.08-.1,.17-.1,.28,0,.13,.04,.23,.11,.32s.19,.15,.33,.2c.14,.05,.32,.09,.52,.13,.26,.05,.49,.1,.69,.17s.36,.15,.49,.25c.13,.1,.23,.23,.29,.38,.07,.15,.1,.33,.1,.55,0,.28-.08,.52-.24,.72Zm3.97-3.69c.07-.16,.19-.24,.36-.24,.11,0,.2,.04,.28,.11s.12,.16,.12,.27c0,.06-.01,.11-.04,.17l-1.62,3.69c-.04,.08-.1,.15-.17,.19-.07,.04-.15,.06-.22,.06-.07,0-.14-.03-.2-.07-.07-.04-.12-.1-.15-.18l-1.62-3.7s-.02-.05-.03-.08c0-.03,0-.05,0-.08,0-.12,.05-.22,.14-.28,.09-.07,.18-.1,.26-.1,.17,0,.29,.08,.36,.25l1.31,3.02"></path>
  </symbol>
  <symbol id="pdf" xmlns="http://www.w3.org/2000/svg" viewBox="0 0 24 24">
    <defs></defs>
    <path d="M13.97,6.82l5.87-.53L13.02,.37l.3,5.89c.02,.34,.31,.59,.65,.56Z"></path>
    <g>
      <path d="M17.83,4.55V21.63H6.17v-4.75s-.09,.08-.13,.11c-.2,.13-.41,.2-.64,.2h-1.14v1.21c0,.09-.04,.17-.09,.24v4c0,.55,.45,1,1,1h13.67c.55,0,1-.45,1-1V6.29l-2-1.74Z"></path>
      <path d="M6.03,14.51s.09,.08,.13,.11V2.37H15.32L13.01,.37H5.17c-.55,0-1,.45-1,1V14.32h1.23c.23,0,.44,.06,.64,.19Z"></path>
      <path d="M4.26,16.46h1.14c.08,0,.16-.03,.24-.1,.08-.07,.14-.16,.2-.27,.05-.11,.08-.22,.08-.34s-.03-.24-.08-.34c-.05-.11-.12-.19-.2-.26-.08-.07-.16-.1-.24-.1h-1.14v1.41Z"></path>
    </g>
    <g>
      <path d="M5.64,15.15c-.08-.07-.16-.1-.24-.1h-1.14v1.41h1.14c.08,0,.16-.03,.24-.1,.08-.07,.14-.16,.2-.27,.05-.11,.08-.22,.08-.34s-.03-.24-.08-.34c-.05-.11-.12-.19-.2-.26Z"></path>
      <path d="M10.24,15.5c-.1-.14-.22-.25-.37-.33s-.33-.12-.53-.12h-1.08v3h1.08c.27,0,.5-.07,.67-.21,.17-.14,.3-.32,.38-.55,.08-.23,.12-.48,.12-.74,0-.2-.02-.39-.07-.57-.05-.18-.12-.34-.21-.48Z"></path>
      <path d="M14.89,13.07H3.3c-.45,0-.82,.37-.82,.82v5.15c0,.45,.37,.82,.82,.82H14.89c.45,0,.82-.37,.82-.82v-5.15c0-.45-.37-.82-.82-.82Zm-8.37,3.41c-.12,.22-.28,.39-.48,.52s-.41,.2-.64,.2h-1.14v1.21c0,.11-.04,.2-.11,.28-.07,.07-.16,.11-.27,.11s-.2-.04-.27-.11c-.07-.08-.1-.17-.1-.28v-3.69c0-.11,.04-.2,.12-.28,.08-.07,.17-.11,.28-.11h1.49c.23,0,.44,.06,.64,.19s.36,.3,.48,.52c.12,.22,.18,.46,.18,.73s-.06,.5-.18,.72Zm4.63,1.2c-.15,.34-.37,.61-.66,.81s-.65,.3-1.07,.3h-1.56c-.11,0-.21-.04-.28-.11-.08-.08-.12-.17-.12-.28v-3.69c0-.11,.04-.2,.12-.28,.08-.07,.17-.11,.28-.11h1.56c.31,0,.59,.06,.84,.17s.45,.28,.62,.48c.17,.21,.29,.45,.38,.72,.08,.27,.13,.56,.13,.87,0,.41-.08,.79-.23,1.13Zm3.79-2.74c-.08,.07-.17,.11-.28,.11h-1.71v1.12h1.41c.11,0,.21,.04,.29,.11,.08,.07,.11,.16,.11,.27,0,.09-.04,.18-.11,.25-.08,.07-.17,.11-.29,.11h-1.41v1.49c0,.11-.04,.2-.12,.28-.08,.07-.18,.11-.29,.11-.12,0-.22-.04-.3-.11-.08-.08-.12-.17-.12-.28v-3.69c0-.11,.04-.2,.12-.28,.08-.07,.17-.11,.28-.11h2.13c.11,0,.21,.04,.28,.11,.08,.07,.11,.16,.11,.27,0,.09-.04,.18-.11,.25Z"></path>
    </g>
  </symbol>
  <symbol id="circle" xmlns="http://www.w3.org/2000/svg" viewBox="0 0 24 24">
    <path d="M12,23.75C5.52,23.75,.25,18.48,.25,12S5.52,.25,12,.25s11.75,5.27,11.75,11.75-5.27,11.75-11.75,11.75Zm0-20.5C7.18,3.25,3.25,7.17,3.25,12s3.93,8.75,8.75,8.75,8.75-3.92,8.75-8.75S16.82,3.25,12,3.25Z"></path>
  </symbol>
  <symbol id="square" xmlns="http://www.w3.org/2000/svg" viewBox="0 0 24 24">
    <path d="M21.4,23.5H2.6c-1.16,0-2.1-.94-2.1-2.1V2.6C.5,1.44,1.44,.5,2.6,.5H21.4c1.16,0,2.1,.94,2.1,2.1V21.4c0,1.16-.94,2.1-2.1,2.1Zm-16.55-3h14.3c.75,0,1.35-.61,1.35-1.35V4.85c0-.75-.61-1.35-1.35-1.35H4.85c-.75,0-1.35,.61-1.35,1.35v14.3c0,.75,.61,1.35,1.35,1.35Z"></path>
  </symbol>
  <symbol id="logo" xmlns="http://www.w3.org/2000/svg" viewBox="0 0 61 60.91">
    <defs></defs>
    <g>
      <path d="M2.37,39.76c3.14-.7,6.58-1.08,10.19-1.08,14.91,0,27,6.56,27,14.65,0,1.96-.71,3.82-1.99,5.53"></path>
      <path d="M14.71,37.23c14.94,.61,26.34,7.46,26.34,16.1,0,2.24-.77,4.41-2.29,6.43l-.9,1.2h-4.12l2.63-3c1.12-1.49,1.69-3.05,1.69-4.63,0-6.75-10.48-12.51-23.34-13.1"></path>
      <path d="M7.58,40.44c-1.67,.17-3.3,.44-4.89,.79l-2.62,.73v-3.28l1.97-.39c1.8-.4,3.65-.69,5.54-.87"></path>
    </g>
    <g>
      <path d="M2.37,44.08c2.98-.97,6.46-1.52,10.19-1.52,10.97,0,19.87,4.83,19.87,10.78,0,2.02-1.03,3.91-2.81,5.53"></path>
      <path d="M14.71,42.44c10.37,.88,18.08,5.9,18.08,12.14,0,2.39-1.15,4.43-3.31,6.39h-4.04l2.03-1.97c1.06-.96,2.32-2.5,2.32-4.42,0-4.46-6.63-8.31-15.08-9.12"></path>
      <path d="M7.58,45.52c-2.03,.23-4.11,.65-5.88,1.22l-1.62,.66v-3.15l.7-.37c2.11-.68,4.41-1.16,6.81-1.4"></path>
    </g>
    <path d="M14.71,47.8c6.05,.8,10.25,3.64,10.31,7.22,.08,4.73-5.63,6.52-13.61,5.94-5.16,0-8.98,.24-11.33-2.1v-2.81c1.78,1.78,6.78,3.41,11.11,3.41,6.2,0,10.83-2.35,10.83-4.44,0-1.68-2.96-3.51-7.31-4.18"></path>
    <path d="M7.58,51c-3.16,.64-6.23,1.94-7.51,3.22l-.07-3.22c1.76-1.76,4.27-2.8,7.58-3.22"></path>
    <path d="M39.99,3.44h16.27c.84,0,1.55,.31,2.11,.92,.57,.61,.76,1.16,.43,2.07-.3,.83,.09,.07-.43,.65-.54,.6-1.27,.87-2.11,.87h-13.6l.44-.95,.06,12.16-.39-.45h11.37c.84,0,1.55,.31,2.11,.92,.57,.61,.58,.99,.44,1.94-.12,.86,.03,.43-.44,1-.52,.62-1.27,.76-2.11,.76h-11.22l.24-.45-.06,13.42-.39-.5h13.55c.84,0,1.55,.33,2.11,.98,.57,.65,.57,1.35,.37,2.18-.19,.76,.2,.11-.37,.7-.57,.6-1.27,.89-2.11,.89h-16.27c-.84,0-1.55-.33-2.11-.98s-.85-1.46-.85-2.43V6.85c0-.97,.28-1.77,.85-2.43,.57-.65,1.27-.98,2.11-.98Z"></path>
    <path d="M11.45,13.17c.36,0,.74,.1,1.15,.29,.4,.2,.71,.45,.91,.76l9.44,14.54-1.94-.08,9.68-14.46c.49-.7,1.13-1.05,1.9-1.05,.62,0,1.18,.22,1.67,.66,.49,.44,.74,1.01,.74,1.71v22.5c0,.68-.22,1.24-.66,1.69-.44,.45-1.02,.68-1.75,.68s-1.32-.23-1.77-.68c-.45-.45-.68-1.02-.68-1.69V19.74l1.51,.35-7.93,12.09c-.23,.28-.52,.53-.87,.74-.35,.21-.71,.3-1.07,.27-.34,.03-.68-.06-1.03-.27-.35-.21-.64-.45-.87-.74l-7.42-11.74,1.01-2.06V52.76c0,.68-.21,1.24-.62,1.69s-.96,.68-1.63,.68-1.18-.23-1.59-.68-.62-1.02-.62-1.69V15.54c0-.65,.24-1.2,.72-1.67,.48-.46,1.05-.7,1.73-.7Z"></path>
  </symbol>
  <symbol id="logoName" xmlns="http://www.w3.org/2000/svg" viewBox="0 0 265.7 60.91">
    <g>
      <path d="M14.71,37.19c14.94,.61,26.34,7.46,26.34,16.1,0,2.24-.77,4.41-2.29,6.43l-.9,1.2h-4.12l2.63-3c1.12-1.49,1.69-3.05,1.69-4.63,0-6.75-10.48-12.51-23.34-13.1"></path>
      <path d="M7.58,40.4c-1.67,.17-3.3,.44-4.89,.79l-2.62,.73v-3.28l1.97-.39c1.8-.4,3.65-.69,5.54-.87"></path>
    </g>
    <g>
      <path d="M14.71,42.4c10.37,.88,18.08,5.9,18.08,12.14,0,2.39-1.15,4.43-3.31,6.39h-4.04l2.03-1.97c1.06-.96,2.32-2.5,2.32-4.42,0-4.46-6.63-8.31-15.08-9.12"></path>
      <path d="M7.58,45.49c-2.03,.23-4.11,.65-5.88,1.22l-1.62,.66v-3.15l.7-.37c2.11-.68,4.41-1.16,6.81-1.4"></path>
    </g>
    <path d="M14.71,47.76c6.05,.8,10.25,3.64,10.31,7.22,.08,4.73-5.63,6.52-13.61,5.94-5.16,0-8.98,.24-11.33-2.1v-2.81c1.78,1.78,6.78,3.41,11.11,3.41,6.2,0,10.83-2.35,10.83-4.44,0-1.68-2.96-3.51-7.31-4.18"></path>
    <path d="M7.58,50.96c-3.16,.64-6.23,1.94-7.51,3.22l-.07-3.22c1.76-1.76,4.27-2.8,7.58-3.22"></path>
    <path d="M39.99,3.41h16.27c.84,0,1.55,.31,2.11,.92,.57,.61,.76,1.16,.43,2.07-.3,.83,.09,.07-.43,.65-.54,.6-1.27,.87-2.11,.87h-13.6l.44-.95,.06,12.16-.39-.45h11.37c.84,0,1.55,.31,2.11,.92,.57,.61,.58,.99,.44,1.94-.12,.86,.03,.43-.44,1-.52,.62-1.27,.76-2.11,.76h-11.22l.24-.45-.06,13.42-.39-.5h13.55c.84,0,1.55,.33,2.11,.98,.57,.65,.57,1.35,.37,2.18-.19,.76,.2,.11-.37,.7-.57,.6-1.27,.89-2.11,.89h-16.27c-.84,0-1.55-.33-2.11-.98s-.85-1.46-.85-2.43V6.81c0-.97,.28-1.77,.85-2.43,.57-.65,1.27-.98,2.11-.98Z"></path>
    <path d="M11.45,13.13c.36,0,.74,.1,1.15,.29,.4,.2,.71,.45,.91,.76l9.44,14.54-1.94-.08,9.68-14.46c.49-.7,1.13-1.05,1.9-1.05,.62,0,1.18,.22,1.67,.66,.49,.44,.74,1.01,.74,1.71v22.5c0,.68-.22,1.24-.66,1.69-.44,.45-1.02,.68-1.75,.68s-1.32-.23-1.77-.68c-.45-.45-.68-1.02-.68-1.69V19.7l1.51,.35-7.93,12.09c-.23,.28-.52,.53-.87,.74-.35,.21-.71,.3-1.07,.27-.34,.03-.68-.06-1.03-.27-.35-.21-.64-.45-.87-.74l-7.42-11.74,1.01-2.06V52.72c0,.68-.21,1.24-.62,1.69s-.96,.68-1.63,.68-1.18-.23-1.59-.68-.62-1.02-.62-1.69V15.5c0-.65,.24-1.2,.72-1.67,.48-.46,1.05-.7,1.73-.7Z"></path>
    <g>
      <path d="M81.69,18.09c.19,0,.4,.05,.62,.16,.22,.11,.4,.26,.53,.45l8.48,12.8-1.15-.03,8.58-12.77c.3-.4,.66-.61,1.09-.61,.34,.02,.64,.15,.91,.4,.27,.25,.4,.55,.4,.91v19.81c0,.36-.13,.67-.38,.93s-.58,.38-.96,.38c-.41,0-.73-.13-.98-.38s-.37-.57-.37-.93V21.86l.8,.13-7.55,11.49c-.13,.17-.28,.31-.46,.42-.18,.11-.38,.15-.59,.13-.19,.02-.38-.02-.58-.13-.19-.11-.34-.25-.45-.42l-7.46-11.46,.67-.86v18.05c0,.36-.12,.67-.35,.93s-.53,.38-.9,.38-.66-.13-.9-.38-.35-.57-.35-.93V19.4c0-.34,.13-.64,.38-.91,.26-.27,.58-.4,.96-.4Z"></path>
      <path d="M107.44,21.57c-.53,0-.93-.11-1.18-.32s-.38-.54-.38-.99v-.45c0-.45,.14-.78,.42-.99,.28-.21,.67-.32,1.18-.32s.9,.11,1.15,.32c.26,.21,.38,.54,.38,.99v.45c0,.45-.13,.78-.4,.99-.27,.21-.66,.32-1.17,.32Zm1.31,17.63c0,.36-.12,.67-.37,.93s-.55,.38-.91,.38c-.38,0-.7-.13-.94-.38-.25-.26-.37-.57-.37-.93v-14.18c0-.36,.12-.67,.37-.93,.24-.26,.56-.38,.94-.38,.36,0,.67,.13,.91,.38s.37,.57,.37,.93v14.18Z"></path>
      <path d="M120.69,23.56c1.11,0,2.1,.12,2.98,.35,.88,.24,1.57,.56,2.08,.96,.51,.41,.77,.86,.77,1.38,0,.3-.1,.58-.29,.83-.19,.26-.46,.38-.8,.38-.28,0-.51-.06-.69-.18-.18-.12-.35-.26-.51-.42-.16-.16-.38-.31-.66-.46-.26-.13-.63-.24-1.12-.34-.49-.1-.98-.14-1.47-.14-1.17,0-2.2,.28-3.09,.83-.89,.55-1.58,1.3-2.1,2.24-.51,.94-.77,2-.77,3.2s.25,2.26,.74,3.2c.49,.94,1.17,1.69,2.05,2.24,.87,.55,1.89,.83,3.04,.83,.75,0,1.34-.06,1.78-.19s.82-.28,1.14-.45c.36-.21,.65-.43,.85-.64,.2-.21,.48-.32,.85-.32s.65,.12,.85,.35c.2,.24,.3,.52,.3,.86,0,.41-.27,.82-.8,1.25-.53,.43-1.26,.78-2.18,1.07s-1.94,.43-3.07,.43c-1.62,0-3.04-.38-4.26-1.14-1.22-.76-2.16-1.79-2.83-3.1-.67-1.31-1.01-2.78-1.01-4.4s.35-3.08,1.04-4.38c.69-1.3,1.66-2.34,2.9-3.1,1.24-.77,2.67-1.15,4.29-1.15Z"></path>
      <path d="M131.25,40.52c-.36,0-.67-.13-.91-.38-.25-.26-.37-.57-.37-.93v-13.92c0-.38,.12-.7,.37-.94,.25-.25,.55-.37,.91-.37,.38,0,.69,.12,.93,.37,.23,.25,.35,.56,.35,.94v4.19l-.38-.67c.13-.66,.36-1.31,.69-1.94,.33-.63,.75-1.19,1.26-1.7s1.1-.9,1.76-1.18,1.39-.43,2.18-.43c.47,0,.9,.11,1.3,.34s.59,.54,.59,.94c0,.45-.12,.78-.35,1.01-.23,.22-.5,.34-.8,.34-.28,0-.54-.06-.8-.19s-.58-.19-.96-.19c-.53,0-1.06,.15-1.58,.45-.52,.3-1,.71-1.44,1.23-.44,.52-.79,1.12-1.06,1.79-.27,.67-.4,1.39-.4,2.16v7.78c0,.36-.12,.67-.37,.93s-.55,.38-.91,.38Z"></path>
      <path d="M157.81,32.2c0,1.66-.37,3.15-1.1,4.45-.74,1.3-1.73,2.33-2.98,3.07s-2.65,1.12-4.21,1.12-2.97-.37-4.22-1.12c-1.26-.75-2.26-1.77-2.99-3.07-.74-1.3-1.1-2.78-1.1-4.45s.37-3.15,1.1-4.45c.74-1.3,1.73-2.33,2.99-3.07,1.26-.75,2.67-1.12,4.22-1.12s2.96,.37,4.21,1.12,2.24,1.77,2.98,3.07c.74,1.3,1.1,2.78,1.1,4.45Zm-2.59,0c0-1.24-.25-2.32-.75-3.25-.5-.93-1.18-1.66-2.05-2.21-.86-.54-1.83-.82-2.9-.82s-2.06,.27-2.93,.82c-.86,.54-1.55,1.28-2.06,2.21-.51,.93-.77,2.01-.77,3.25s.26,2.29,.77,3.23,1.2,1.68,2.06,2.22c.86,.54,1.84,.82,2.93,.82s2.03-.27,2.9-.82c.86-.54,1.55-1.29,2.05-2.22,.5-.94,.75-2.02,.75-3.23Z"></path>
      <path d="M163.38,18.12h11.39c.36,0,.67,.12,.93,.37,.26,.25,.38,.55,.38,.91s-.13,.66-.38,.88c-.26,.22-.57,.34-.93,.34h-10.3l.29-.54v8.06l-.32-.35h8.9c.36,0,.67,.12,.93,.35,.26,.23,.38,.54,.38,.93,0,.36-.13,.66-.38,.88-.26,.22-.57,.34-.93,.34h-8.8l.22-.32v8.29l-.19-.22h10.21c.36,0,.67,.13,.93,.38s.38,.54,.38,.86c0,.36-.13,.66-.38,.9-.26,.23-.57,.35-.93,.35h-11.39c-.36,0-.67-.13-.93-.38s-.38-.57-.38-.93V19.43c0-.36,.13-.67,.38-.93,.26-.26,.57-.38,.93-.38Z"></path>
      <path d="M182.71,39.21c0,.36-.13,.67-.38,.93s-.57,.38-.93,.38-.67-.13-.91-.38-.37-.57-.37-.93V18.15c0-.36,.13-.67,.38-.93,.26-.26,.57-.38,.93-.38,.38,0,.69,.13,.93,.38,.23,.26,.35,.57,.35,.93v21.06Z"></path>
      <path d="M201.3,23.81c.36,0,.67,.12,.91,.37,.25,.25,.37,.55,.37,.91v14.11c0,.36-.12,.67-.37,.93-.25,.26-.55,.38-.91,.38-.38,0-.7-.13-.94-.38s-.37-.57-.37-.93v-3.04l.61-.06c0,.49-.16,1.01-.48,1.55-.32,.54-.76,1.06-1.31,1.54-.55,.48-1.21,.88-1.95,1.18-.75,.31-1.56,.46-2.43,.46-1.45,0-2.76-.38-3.92-1.14-1.16-.76-2.08-1.79-2.74-3.09-.66-1.3-.99-2.78-.99-4.45s.34-3.17,1.01-4.46c.67-1.29,1.58-2.3,2.72-3.04,1.14-.74,2.43-1.1,3.86-1.1,.92,0,1.77,.15,2.56,.45,.79,.3,1.48,.7,2.06,1.22s1.04,1.08,1.36,1.7c.32,.62,.48,1.24,.48,1.86l-.83-.19v-3.49c0-.36,.12-.67,.37-.91s.56-.37,.94-.37Zm-6.59,14.66c1.07,0,2-.28,2.82-.83s1.45-1.31,1.92-2.26c.47-.95,.7-2.02,.7-3.22s-.23-2.23-.7-3.17c-.47-.94-1.11-1.69-1.92-2.24s-1.75-.83-2.82-.83-1.98,.27-2.8,.82c-.82,.54-1.47,1.29-1.94,2.22-.47,.94-.7,2-.7,3.2s.23,2.27,.69,3.22c.46,.95,1.1,1.7,1.92,2.26s1.76,.83,2.83,.83Z"></path>
      <path d="M206.36,37.89c-.17-.28-.25-.57-.24-.88s.19-.58,.53-.82c.23-.15,.5-.21,.78-.19,.29,.02,.55,.16,.78,.42,.6,.7,1.28,1.26,2.05,1.68,.77,.42,1.71,.62,2.82,.62,.49-.02,1-.11,1.52-.26,.52-.15,.96-.41,1.31-.78s.53-.87,.53-1.49-.18-1.07-.54-1.42c-.36-.35-.84-.64-1.42-.86-.59-.22-1.21-.42-1.87-.59-.7-.19-1.4-.41-2.08-.64-.68-.23-1.3-.54-1.84-.91-.54-.37-.98-.84-1.31-1.41-.33-.56-.5-1.26-.5-2.1,0-.96,.26-1.79,.78-2.5,.52-.7,1.22-1.25,2.1-1.63s1.84-.58,2.91-.58c.6,0,1.22,.07,1.87,.21,.65,.14,1.29,.37,1.9,.7,.62,.33,1.16,.78,1.63,1.36,.19,.21,.3,.48,.32,.8,.02,.32-.12,.61-.42,.86-.24,.17-.5,.25-.78,.24s-.53-.11-.72-.3c-.47-.55-1.04-.98-1.71-1.26-.67-.29-1.41-.43-2.22-.43-.49,0-.98,.08-1.47,.24-.49,.16-.9,.41-1.23,.75-.33,.34-.5,.82-.5,1.44,.02,.58,.21,1.04,.58,1.41,.36,.36,.85,.66,1.47,.88,.62,.22,1.3,.44,2.05,.66,.68,.17,1.34,.37,1.97,.59,.63,.22,1.2,.52,1.71,.88,.51,.36,.92,.83,1.22,1.39s.45,1.28,.45,2.13c0,.98-.28,1.83-.83,2.54-.56,.71-1.29,1.26-2.19,1.63-.91,.37-1.88,.56-2.93,.56-1.17,0-2.34-.22-3.49-.66-1.15-.44-2.14-1.2-2.98-2.29Z"></path>
      <path d="M221.84,24.07h7.52c.34,0,.62,.12,.85,.35,.22,.23,.34,.52,.34,.86,0,.32-.11,.59-.34,.82-.22,.22-.51,.34-.85,.34h-7.52c-.32,0-.6-.12-.85-.35s-.37-.51-.37-.83c0-.34,.12-.62,.37-.85,.25-.22,.53-.34,.85-.34Zm3.36-4.35c.36,0,.66,.13,.9,.38,.23,.26,.35,.57,.35,.93v15.42c0,.51,.07,.9,.22,1.15s.35,.43,.59,.53c.25,.1,.48,.14,.72,.14,.21,0,.4-.04,.56-.11,.16-.08,.35-.11,.56-.11s.41,.1,.59,.3c.18,.2,.27,.46,.27,.78,0,.38-.22,.71-.67,.98-.45,.27-.95,.4-1.5,.4-.3,0-.67-.02-1.1-.06-.44-.04-.87-.18-1.3-.42-.43-.23-.78-.62-1.07-1.17-.29-.54-.43-1.31-.43-2.29v-15.55c0-.36,.13-.67,.38-.93s.56-.38,.93-.38Z"></path>
      <path d="M235.25,21.57c-.53,0-.93-.11-1.18-.32s-.38-.54-.38-.99v-.45c0-.45,.14-.78,.42-.99,.28-.21,.67-.32,1.18-.32s.9,.11,1.15,.32c.26,.21,.38,.54,.38,.99v.45c0,.45-.13,.78-.4,.99-.27,.21-.66,.32-1.17,.32Zm1.31,17.63c0,.36-.12,.67-.37,.93s-.55,.38-.91,.38c-.38,0-.7-.13-.94-.38-.25-.26-.37-.57-.37-.93v-14.18c0-.36,.12-.67,.37-.93,.24-.26,.56-.38,.94-.38,.36,0,.67,.13,.91,.38s.37,.57,.37,.93v14.18Z"></path>
      <path d="M248.5,23.56c1.11,0,2.1,.12,2.98,.35,.88,.24,1.57,.56,2.08,.96,.51,.41,.77,.86,.77,1.38,0,.3-.1,.58-.29,.83-.19,.26-.46,.38-.8,.38-.28,0-.51-.06-.69-.18-.18-.12-.35-.26-.51-.42-.16-.16-.38-.31-.66-.46-.26-.13-.63-.24-1.12-.34-.49-.1-.98-.14-1.47-.14-1.17,0-2.2,.28-3.09,.83-.89,.55-1.58,1.3-2.1,2.24-.51,.94-.77,2-.77,3.2s.25,2.26,.74,3.2c.49,.94,1.17,1.69,2.05,2.24,.87,.55,1.89,.83,3.04,.83,.75,0,1.34-.06,1.78-.19s.82-.28,1.14-.45c.36-.21,.65-.43,.85-.64,.2-.21,.48-.32,.85-.32s.65,.12,.85,.35c.2,.24,.3,.52,.3,.86,0,.41-.27,.82-.8,1.25-.53,.43-1.26,.78-2.18,1.07s-1.94,.43-3.07,.43c-1.62,0-3.04-.38-4.26-1.14-1.22-.76-2.16-1.79-2.83-3.1-.67-1.31-1.01-2.78-1.01-4.4s.35-3.08,1.04-4.38c.69-1.3,1.66-2.34,2.9-3.1,1.24-.77,2.67-1.15,4.29-1.15Z"></path>
    </g>
  </symbol>
</svg>

